<?xml version="1.0" encoding="UTF-8"?>
<svg version="1.1" xmlns="http://www.w3.org/2000/svg" width="1024" height="1024">
<path d="M0 0 C337.92 0 675.84 0 1024 0 C1024 337.92 1024 675.84 1024 1024 C686.08 1024 348.16 1024 0 1024 C0 686.08 0 348.16 0 0 Z " fill="#20262D" transform="translate(0,0)"/>
<path d="M0 0 C1.2633316 -0.00137466 2.52666321 -0.00274933 3.82827759 -0.00416565 C5.21019006 -0.00062745 6.59210229 0.00300734 7.97401428 0.00672913 C9.4430084 0.00701149 10.91200266 0.00685231 12.3809967 0.00628662 C16.35360845 0.00600055 20.3261898 0.01186648 24.29879451 0.01886058 C28.45612225 0.02512584 32.61345074 0.02570042 36.77078247 0.02688599 C44.63644238 0.02998996 52.50208834 0.03819074 60.36774212 0.04823548 C69.32541046 0.05942564 78.28307947 0.06491438 87.24075305 0.06993091 C105.661044 0.08037415 124.08132196 0.09795547 142.50160217 0.12025452 C136.92786412 11.79863567 124.90173768 20.78410238 114.63050842 28.19056702 C104.55285225 35.55945191 96.04138816 44.34426902 87.38002014 53.30775452 C84.43495285 56.14947268 82.81297802 57.08356576 78.68910217 57.56947327 C74.78547605 57.46510301 72.74642748 56.2430406 69.92347717 53.45423889 C69.45425842 52.95214905 68.98503967 52.4500592 68.50160217 51.93275452 C62.80705551 46.07394208 57.56524283 40.99443407 49.03871155 40.489151 C46.97442217 40.46313942 44.90964061 40.4652623 42.84535217 40.49134827 C41.74364685 40.48893631 40.64194153 40.48652435 39.5068512 40.48403931 C37.18719366 40.4850149 34.86751201 40.4983393 32.54798889 40.52333069 C29.01218486 40.55765179 25.47888137 40.54396846 21.94300842 40.52455139 C19.68127911 40.53145033 17.41955621 40.54112313 15.15785217 40.55384827 C14.10867615 40.5488884 13.05950012 40.54392853 11.97853088 40.53881836 C4.60568551 40.65620728 -1.10719865 41.76766482 -6.55699158 47.15541077 C-7.01203064 47.8244342 -7.4670697 48.49345764 -7.93589783 49.18275452 C-8.40898376 49.85435608 -8.8820697 50.52595764 -9.36949158 51.21791077 C-11.21729063 54.33167596 -11.62245839 56.88392336 -11.61624146 60.42443848 C-11.61735931 61.30312088 -11.61847717 62.18180328 -11.61962891 63.08711243 C-11.6159581 64.04865234 -11.61228729 65.01019226 -11.60850525 66.00086975 C-11.60904807 68.10515341 -11.60963509 70.20943706 -11.61026001 72.3137207 C-11.60811776 73.99063649 -11.60811776 73.99063649 -11.60593224 75.70142937 C-11.60241239 81.62689118 -11.62822466 87.5522581 -11.64878845 93.47767639 C-11.67308308 101.01576124 -11.6888723 108.55357162 -11.67344666 116.09169006 C-11.66174561 122.18380633 -11.67929314 128.27524051 -11.71589088 134.36725044 C-11.72447575 136.68229266 -11.72247303 138.99740065 -11.70938683 141.3124218 C-11.63032731 156.43676718 -11.8524002 167.30443758 -22.68589783 178.80775452 C-29.36567888 184.4236807 -37.49778424 187.6937182 -45.45884705 191.09632874 C-47.59093698 192.0829334 -47.59093698 192.0829334 -49.57310486 193.74183655 C-51.49839783 195.12025452 -51.49839783 195.12025452 -54.49839783 195.12025452 C-54.59198815 174.97040095 -54.66244893 154.82059172 -54.70564651 134.67056561 C-54.72624024 125.31379604 -54.75429962 115.95716181 -54.80015564 106.60047913 C-54.84012132 98.44177478 -54.86585381 90.28316849 -54.87475181 82.12436897 C-54.87995013 77.80740547 -54.89210099 73.49072241 -54.92131805 69.17384911 C-54.94864129 65.10348391 -54.95680902 61.03351239 -54.95082855 56.96306419 C-54.95192128 55.47604731 -54.9597741 53.98901608 -54.97521973 52.50207901 C-55.12886678 36.93581714 -50.9160709 25.69862539 -40.18589783 14.37025452 C-29.38474633 4.03637413 -14.75590928 -0.01245224 0 0 Z " fill="#FCFCFC" transform="translate(598.4983978271484,405.87974548339844)"/>
<path d="M0 0 C19.13354007 -0.09378531 38.26703296 -0.16414573 57.40075588 -0.20724869 C66.28653625 -0.22780147 75.17217312 -0.25578124 84.05786133 -0.30175781 C91.81010371 -0.34185028 99.56224207 -0.36748562 107.31458527 -0.37635398 C111.41265351 -0.38153115 115.51042439 -0.39354377 119.60839653 -0.42292023 C166.88356685 -0.74827564 166.88356685 -0.74827564 183.9375 15.3125 C194.43453749 26.63774411 197.47761831 37.48730735 197.20117188 52.59570312 C197.18641954 54.02303929 197.17313825 55.45039134 197.16124725 56.87775421 C197.13456994 59.81690182 197.09958258 62.75576636 197.0574646 65.69473267 C196.98390914 70.92998904 196.95761346 76.16530638 196.92946625 81.40097809 C196.893003 87.75700544 196.8354349 94.11285362 196.78125 100.46875 C196.75856986 103.22554315 196.73628568 105.98233947 196.71398926 108.73913574 C196.66190522 115.1519106 196.60852198 121.56467389 196.5546174 127.97743368 C196.49310478 135.30329988 196.43312358 142.62917841 196.37324238 149.9550581 C196.25047809 164.97005258 196.12588371 179.98503133 196 195 C192.70429076 194.38448974 190.1267107 193.7295226 187.22265625 192.0390625 C186.54396484 191.64976562 185.86527344 191.26046875 185.16601562 190.859375 C184.47185547 190.45203125 183.77769531 190.0446875 183.0625 189.625 C181.67915757 188.82418552 180.29505426 188.02468381 178.91015625 187.2265625 C177.91447632 186.65059326 177.91447632 186.65059326 176.89868164 186.06298828 C175.21355994 185.11956281 173.48397092 184.25656266 171.75 183.40625 C164.2109295 179.5510435 159.3242956 173.71864343 156 166 C155.1747091 163.18961669 154.87225406 160.68324523 154.86196899 157.75865173 C154.85651566 156.91922028 154.85106232 156.07978882 154.84544373 155.21492004 C154.8444014 154.30215805 154.84335907 153.38939606 154.84228516 152.44897461 C154.83720444 151.4809491 154.83212372 150.51292358 154.82688904 149.51556396 C154.81619129 147.41322165 154.80756877 145.31086799 154.80076981 143.20850945 C154.7889622 139.87401812 154.7695022 136.53965523 154.74765015 133.20521545 C154.6861125 123.72417519 154.63209353 114.2431471 154.59863281 104.76196289 C154.57760893 98.96061253 154.5422397 93.15949501 154.49787521 87.35827827 C154.48377174 85.15406612 154.47500564 82.94981276 154.47182083 80.74555779 C154.46687518 77.64905573 154.44362185 74.55316376 154.41650391 71.45678711 C154.41951004 70.55819473 154.42251617 69.65960236 154.4256134 68.73377991 C154.32651 61.0580575 152.41461946 54.24385838 150 47 C148.20067421 45.93283296 148.20067421 45.93283296 146 45 C145.175 44.484375 144.35 43.96875 143.5 43.4375 C139.69437976 41.24926836 136.43403596 40.87255675 132.08300781 40.80712891 C130.6206369 40.78303452 130.6206369 40.78303452 129.12872314 40.75845337 C124.67762139 40.71375329 120.22666458 40.67294335 115.77539062 40.64990234 C113.43219058 40.63335065 111.08904086 40.60607132 108.74609375 40.56787109 C105.3565061 40.51293837 101.96809861 40.49120283 98.578125 40.4765625 C97.0183493 40.44255844 97.0183493 40.44255844 95.42706299 40.40786743 C85.78073418 40.43570719 80.57492281 44.21749675 73.6875 50.6875 C67.11699473 56.82478514 67.11699473 56.82478514 62.8125 57.5 C52.78978056 56.18554499 44.18504208 45.13605064 38.25 37.5625 C32.70168966 30.88252296 24.86789164 25.94241431 17.99609375 20.71484375 C11.01127869 15.24025897 5.18525462 9.20986596 0 2 C0 1.34 0 0.68 0 0 Z " fill="#FCFDFD" transform="translate(287,406)"/>
<path d="M0 0 C11.92626953 5.96313477 11.92626953 5.96313477 14.02531433 7.01324463 C15.78195031 7.89104002 17.5401573 8.76568992 19.29858398 9.63989258 C29.42689707 14.74099976 37.36267052 21.02686621 41 32 C41.5226337 35.49335888 41.53534586 38.91414373 41.49829102 42.44165039 C41.50380981 43.44448563 41.50932861 44.44732086 41.51501465 45.48054504 C41.52429111 47.64281831 41.52447611 49.80514623 41.51642036 51.96742439 C41.50373423 55.39412163 41.51513175 58.82002006 41.53245544 62.24668884 C41.55909859 68.28521477 41.56475321 74.32354323 41.56335449 80.36212158 C41.56112205 90.02969418 41.57531298 99.69702279 41.61894035 109.36450005 C41.62875277 112.73247591 41.6200758 116.10006513 41.61024475 119.46803284 C41.61639082 121.54127249 41.62330317 123.61451005 41.63110352 125.68774414 C41.62338425 126.61731934 41.61566498 127.54689453 41.60771179 128.50463867 C41.66377042 135.74735439 42.91151516 142.30242264 47.9375 147.875 C48.66259766 148.70644531 48.66259766 148.70644531 49.40234375 149.5546875 C52.73019513 152.5652132 55.65782381 153.25251102 60.0847168 153.29052734 C61.09644455 153.30328705 62.1081723 153.31604675 63.15055847 153.32919312 C64.23911636 153.33141876 65.32767426 153.33364441 66.44921875 153.3359375 C68.14000298 153.3459227 68.14000298 153.3459227 69.86494446 153.35610962 C72.25133636 153.36623495 74.63775656 153.37092668 77.02416992 153.37060547 C80.65656951 153.3749629 84.2877385 153.41124222 87.91992188 153.44921875 C90.24218336 153.45509021 92.5644506 153.4590574 94.88671875 153.4609375 C96.50437386 153.48249405 96.50437386 153.48249405 98.15470886 153.50448608 C107.62000543 153.44780183 114.43746895 151.08748911 121.3125 144.4375 C128.95898438 137.13578465 128.95898438 137.13578465 132.875 136.625 C140.37241487 137.52468978 145.45750974 142.25394395 150 148 C151.71866705 151.23513797 152.9233944 154.50386498 154 158 C154.33644531 159.08474609 154.33644531 159.08474609 154.6796875 160.19140625 C155.14992125 161.78569191 155.58042753 163.39163888 156 165 C156.66 165 157.32 165 158 165 C159.19921875 166.2578125 159.19921875 166.2578125 160.6875 168.125 C168.76243366 177.61895966 178.37103968 186.09053374 188.33984375 193.546875 C188.88769531 194.02640625 189.43554688 194.5059375 190 195 C190 195.66 190 196.32 190 197 C176.49798627 197.04674691 162.99599242 197.0820811 149.49391365 197.10362434 C143.22149888 197.11397424 136.94914027 197.12796854 130.67675781 197.15087891 C124.60126077 197.17292624 118.52581707 197.18463432 112.45028305 197.18975449 C110.15516192 197.19339398 107.86004305 197.2004967 105.56494522 197.21146011 C42.66487654 197.49943212 42.66487654 197.49943212 23 186 C21.77796875 185.32130859 21.77796875 185.32130859 20.53125 184.62890625 C9.44081473 177.92526986 2.92563358 168.15253374 -1 156 C-1.72571051 151.24583242 -1.72902963 146.63694279 -1.62109375 141.8359375 C-1.61268893 140.47040127 -1.60696381 139.10484641 -1.60365295 137.73928833 C-1.58710446 134.05214139 -1.5330932 130.36641875 -1.47189331 126.67977905 C-1.41367211 122.77823568 -1.3906635 118.87646877 -1.36328125 114.97460938 C-1.30418625 107.37351145 -1.21181737 99.77316787 -1.10783195 92.17256546 C-1.01851285 85.5842238 -0.94323766 78.99582408 -0.87548828 72.40722656 C-0.86545934 71.4325046 -0.85543039 70.45778263 -0.84509754 69.45352364 C-0.82482852 67.47803528 -0.80458936 65.50254662 -0.78437996 63.52705765 C-0.56612648 42.35077349 -0.29724765 21.17531093 0 0 Z " fill="#FBFCFC" transform="translate(545,168)"/>
<path d="M0 0 C0.133319 12.73089234 0.26382392 25.46181054 0.39115143 38.19276428 C0.45041467 44.1102943 0.51049418 50.02781319 0.57275391 55.9453125 C0.71677413 69.68265851 0.84278985 83.41999818 0.94580078 97.15771484 C0.98075224 101.75708037 1.02263375 106.35631057 1.06982422 110.95556641 C1.12651283 116.54316175 1.16781485 122.13067597 1.19798279 127.71847534 C1.21166136 129.7975578 1.23054274 131.87661356 1.25502014 133.95559692 C1.28783792 136.82207403 1.30147569 139.68805032 1.31054688 142.5546875 C1.32443954 143.38341873 1.33833221 144.21214996 1.35264587 145.06599426 C1.33011556 158.02707731 -5.13795481 169.82917275 -14 179 C-44.98606609 203.98876298 -99.27881581 197.54256085 -136.00018311 197.2746582 C-142.33730578 197.23298629 -148.6744972 197.21531317 -155.01171875 197.1953125 C-167.34131984 197.15301705 -179.67062555 197.0851847 -192 197 C-185.52420909 190.49240863 -178.71915214 184.359233 -171.8125 178.3125 C-171.1834375 177.76078125 -170.554375 177.2090625 -169.90625 176.640625 C-168.5890756 175.50699129 -167.25439311 174.39349888 -165.90625 173.296875 C-159.14304201 167.69451614 -155.76811398 162.0953557 -152.625 153.9375 C-149.50674334 146.1858463 -144.40659784 140.9396797 -137 137 C-134.00352245 136.50271224 -131.95043298 136.39194001 -129.33276367 138.06665039 C-127.53181448 139.56860529 -125.82222752 141.13180081 -124.125 142.75 C-122.96854843 143.83628485 -121.80445931 144.91449707 -120.6328125 145.984375 C-119.87315186 146.70705566 -119.87315186 146.70705566 -119.09814453 147.44433594 C-112.10922948 152.62624968 -106.21413415 153.59937081 -97.59765625 153.53125 C-96.52051865 153.5350769 -95.44338104 153.53890381 -94.33360291 153.54284668 C-92.0652472 153.54555758 -89.79685979 153.53825431 -87.52856445 153.52148438 C-84.07626883 153.50008535 -80.62605917 153.52130474 -77.17382812 153.546875 C-74.96093295 153.54423117 -72.74803906 153.53910506 -70.53515625 153.53125 C-69.51301529 153.53934692 -68.49087433 153.54744385 -67.4377594 153.55578613 C-60.89703866 153.47116167 -55.64139102 152.43910651 -50 149 C-47.57583999 146.67930035 -47.57583999 146.67930035 -46 144 C-45.443125 143.175 -44.88625 142.35 -44.3125 141.5 C-41.42811247 136.00592851 -41.86034816 130.18921589 -41.87402344 124.13598633 C-41.8721553 123.14670135 -41.87028717 122.15741638 -41.86836243 121.13815308 C-41.86436394 118.99271212 -41.8622841 116.84726693 -41.86190033 114.70182228 C-41.85847599 110.13239002 -41.83710129 105.56309893 -41.81666946 100.99371624 C-41.77870316 92.49115316 -41.74738251 83.98874158 -41.74951172 75.48608398 C-41.75030058 69.56678022 -41.72686031 63.64799484 -41.6876297 57.72882652 C-41.67719535 55.47912618 -41.67562665 53.22936583 -41.68328094 50.97965431 C-41.69294869 47.82286547 -41.6716324 44.66763479 -41.64355469 41.51098633 C-41.65375137 40.59166824 -41.66394806 39.67235016 -41.67445374 38.72517395 C-41.54770521 30.72982719 -38.82469499 24.42683968 -33.74609375 18.265625 C-27.60412481 12.90309374 -21.39286637 9.37136997 -14 6 C-11.78843771 4.88136094 -9.58000253 3.75651446 -7.375 2.625 C-2.24615385 0 -2.24615385 0 0 0 Z " fill="#FCFDFC" transform="translate(483,168)"/>
<path d="M0 0 C0.00423194 0.55878216 0.00846388 1.11756432 0.01282406 1.69327927 C0.11682217 15.38646575 0.22560518 29.07960733 0.33933926 42.77271652 C0.39420353 49.39501178 0.44755955 56.01731227 0.49731445 62.63964844 C0.54550335 69.04582287 0.59785549 75.45195166 0.65294075 81.85807037 C0.67312053 84.28652032 0.6918693 86.71498266 0.70907402 89.14345551 C0.79041403 100.50368211 0.90586316 111.85245237 1.45507812 123.20117188 C1.49281562 123.99303265 1.53055311 124.78489342 1.56943417 125.60074997 C1.87954305 131.3213122 2.66721353 136.91031126 3.56298828 142.56835938 C4.48082809 149.77570932 4.39110138 157.08468915 4.45629883 164.34277344 C4.63490209 181.11970411 8.52753629 191.53593968 19.86328125 203.9296875 C23.24370477 207.20505215 26.93138435 209.65964587 31 212 C31.63550781 212.36738281 32.27101563 212.73476563 32.92578125 213.11328125 C46.96001243 220.63888348 62.83661909 222.92584329 78.53369141 223.51635742 C86.12970629 223.89256273 93.36595934 225.63885518 100.70922852 227.53515625 C107.66301869 228.94622057 114.39792495 229.11281131 121.46411133 229.01489258 C123.57126977 228.99547349 125.67843253 228.97651789 127.78559875 228.95796204 C128.89268 228.9468017 129.99976124 228.93564137 131.1403904 228.92414284 C138.27646568 228.86274465 145.41287035 228.86287694 152.54916859 228.85153675 C158.80728913 228.83809218 165.06389256 228.80311773 171.3215332 228.72241211 C177.39384155 228.64531146 183.46383458 228.62710788 189.53656578 228.6482296 C191.84140742 228.64578223 194.14633218 228.62222552 196.45072365 228.57660866 C215.36784413 228.22061633 215.36784413 228.22061633 220.89242554 232.65707397 C224.57269157 236.26689344 227.35700464 240.07101392 229 245 C228.08672062 245.00496522 228.08672062 245.00496522 227.15499115 245.01003075 C212.26980719 245.09161534 197.38471665 245.18382023 182.49967194 245.28752708 C175.30107194 245.3374308 168.10248208 245.38387413 160.90380859 245.421875 C154.62194763 245.45504524 148.34017091 245.49500978 142.05840349 245.54279006 C138.73905232 245.56780947 135.41980986 245.58864505 132.10038757 245.60334396 C110.5920888 244.45474926 110.5920888 244.45474926 90 249 C87.81751901 249.1314369 85.63132164 249.20293162 83.4453125 249.24609375 C82.0937451 249.27909697 80.74218275 249.31230728 79.390625 249.34570312 C77.2738076 249.39259773 75.15699994 249.43689672 73.04003906 249.47680664 C52.74125851 249.87788288 34.46686987 252.85075527 19.1875 267.3125 C8.90045946 278.16900171 4.55010602 290.38724839 4.4529314 305.17696762 C4.38332932 314.52721025 4.20460532 323.8456083 3.30761719 333.1574707 C0.53608084 362.09308204 0.6431 390.94102339 0.79400635 419.98754883 C0.82527858 426.66680123 0.83851885 433.3460853 0.85351562 440.02539062 C0.88522282 453.01701728 0.93546876 466.00849683 1 479 C-2.18736902 475.87541566 -4.89234402 472.64529812 -7.5625 469.0625 C-8.32691406 468.04285156 -9.09132813 467.02320313 -9.87890625 465.97265625 C-15.37186734 458.27441796 -15.37186734 458.27441796 -15.39199829 452.41923523 C-15.40309128 451.30798782 -15.41418427 450.19674042 -15.4256134 449.05181885 C-15.42260727 447.84193298 -15.41960114 446.63204712 -15.41650391 445.38549805 C-15.42508926 444.10349014 -15.43367462 442.82148224 -15.44252014 441.50062561 C-15.4658283 437.98752639 -15.47099275 434.47460397 -15.47317934 430.96143699 C-15.47885783 427.26930121 -15.50215182 423.57727886 -15.52377319 419.88520813 C-15.56230904 412.8779232 -15.58650924 405.8706708 -15.60489786 398.86330682 C-15.63820113 386.35962568 -15.69657294 373.85604625 -15.75888956 361.35248023 C-15.78015621 356.97508198 -15.79543198 352.59771512 -15.8058511 348.2202782 C-15.81830688 329.63481658 -15.81830688 329.63481658 -16.76882935 311.08067322 C-18.26834401 291.09753702 -18.30433879 271.3038482 -7 254 C2.57789097 243.39110361 14.0319134 238.44472917 28.16601562 237.60400391 C33.85940323 237.37782667 39.55278169 237.33866458 45.25 237.3125 C49.10946627 237.27379017 52.96879062 237.2258412 56.828125 237.17578125 C57.73550415 237.16459259 58.6428833 237.15340393 59.57775879 237.14187622 C68.85643466 237.21449923 68.85643466 237.21449923 78 236 C78.33 235.34 78.66 234.68 79 234 C70.21132329 233.35022919 61.4478216 232.91351341 52.63671875 232.75390625 C51.29856613 232.7289357 51.29856613 232.7289357 49.93338013 232.70346069 C46.25408308 232.6372548 42.5747938 232.57499054 38.89526367 232.52319336 C8.22733494 232.07342221 8.22733494 232.07342221 -2.296875 221.74609375 C-4.28009006 219.54935736 -6.16958266 217.32501048 -8 215 C-8.52464844 214.37222656 -9.04929687 213.74445313 -9.58984375 213.09765625 C-11.32243346 210.52036906 -12.17859625 208.01721722 -13.125 205.0625 C-13.45757813 204.04285156 -13.79015625 203.02320313 -14.1328125 201.97265625 C-15.68145003 196.66403842 -16.13783844 191.79788665 -16.09985352 186.27954102 C-16.09865194 185.49699133 -16.09745037 184.71444164 -16.09621239 183.90817833 C-16.09104314 181.25255254 -16.07870801 178.59700793 -16.06640625 175.94140625 C-16.06083785 174.00704582 -16.05577333 172.07268388 -16.05116272 170.13832092 C-16.04346707 166.95691849 -16.03528059 163.77552278 -16.02526379 160.5941267 C-15.99868191 151.79300157 -16.00306649 142.99205533 -16.01513672 134.19091797 C-16.03221736 121.23666289 -16.0153642 108.28276528 -15.97151756 95.32857323 C-15.94699136 87.82202877 -15.93625195 80.315897 -15.95532227 72.80932617 C-15.97226223 66.12528567 -15.96460161 59.44179648 -15.92765242 52.75782877 C-15.90912701 49.25957793 -15.90214359 45.76226489 -15.92530632 42.26402092 C-15.95049605 38.39808884 -15.92066519 34.53360898 -15.88647461 30.66772461 C-15.9022908 29.54210114 -15.91810699 28.41647766 -15.93440247 27.25674438 C-15.75854489 16.90034343 -11.16564877 10.13001607 -4.125 2.8125 C-1.18735363 0 -1.18735363 0 0 0 Z " fill="#F6F8F7" transform="translate(533,148)"/>
<path d="M0 0 C0.66 0 1.32 0 2 0 C3.7288446 2.21814024 5.34666947 4.43606469 6.9375 6.75 C7.82128368 8.01585609 8.70539017 9.28148687 9.58984375 10.546875 C9.98034912 11.11245117 10.37085449 11.67802734 10.77319336 12.26074219 C11.99383882 14.05431723 11.99383882 14.05431723 13.55217552 15.78066635 C15.31857687 18.48833846 15.38046721 20.0351411 15.39199829 23.24859619 C15.40309128 24.31113113 15.41418427 25.37366608 15.4256134 26.46839905 C15.42260727 27.62899338 15.41960114 28.78958771 15.41650391 29.98535156 C15.42508926 31.21178879 15.43367462 32.43822601 15.44252014 33.701828 C15.46331869 37.06372648 15.47099285 40.42518748 15.47317934 43.78711796 C15.47884669 47.31083905 15.50212808 50.83444051 15.52377319 54.35809326 C15.56230838 61.03848956 15.58651504 67.71885162 15.60489786 74.39933085 C15.63825418 86.34722544 15.69624826 98.29501535 15.75888956 110.24278808 C15.78029398 114.43204351 15.79561428 118.62126418 15.80572915 122.81056166 C15.81444357 126.0394111 15.82898519 129.26823698 15.84228516 132.49707031 C15.84332748 133.64956772 15.84436981 134.80206512 15.84544373 135.98948669 C15.87475546 141.76124518 16.17476946 147.28892929 17 153 C17.09224298 154.36868244 17.16362156 155.73936442 17.19287109 157.11083984 C17.20893402 157.81292572 17.22499695 158.5150116 17.24154663 159.2383728 C17.28751811 162.44225482 17.32710889 165.64596011 17.35009766 168.85009766 C17.36652406 170.5156057 17.39363417 172.18104726 17.43212891 173.84619141 C17.8344502 191.43287967 15.34604997 208.51171097 3.16015625 222.04296875 C-3.71050511 228.63262146 -13.05224342 233.03932017 -22.62231445 233.18945312 C-23.99073235 233.21452942 -23.99073235 233.21452942 -25.38679504 233.2401123 C-26.36903549 233.25368774 -27.35127594 233.26726318 -28.36328125 233.28125 C-29.38745651 233.29965942 -30.41163177 233.31806885 -31.46684265 233.33703613 C-34.74867038 233.39573005 -38.03055265 233.44845992 -41.3125 233.5 C-61.17562685 233.80510726 -61.17562685 233.80510726 -81 235 C-80.67 235.66 -80.34 236.32 -80 237 C-77.41692665 237.15251815 -74.83379168 237.29789087 -72.25 237.4375 C-71.39398193 237.48406738 -70.53796387 237.53063477 -69.65600586 237.57861328 C-63.47536616 237.88956898 -57.29996169 238.0691482 -51.11328125 238.18359375 C-49.52636419 238.21608096 -47.93945014 238.24871576 -46.35253906 238.28149414 C-43.97796164 238.33025337 -41.60378997 238.37449945 -39.22888184 238.40328979 C-25.26161519 238.57425163 -12.70280464 239.58473235 -1 248 C-0.35289062 248.45246094 0.29421875 248.90492188 0.9609375 249.37109375 C8.83789924 255.44220182 13.47738275 264.95445272 15.0625 274.625 C15.54864725 277.55795446 16.05784734 280.17354201 17 283 C17.09548011 285.1663176 17.13073533 287.33548653 17.1328125 289.50390625 C17.13410156 290.80263672 17.13539063 292.10136719 17.13671875 293.43945312 C17.13462402 294.11758057 17.1325293 294.79570801 17.13037109 295.49438477 C17.12508222 297.53083981 17.13028916 299.567068 17.13671875 301.60351562 C17.13478516 303.56514648 17.13478516 303.56514648 17.1328125 305.56640625 C17.13168457 306.75177979 17.13055664 307.93715332 17.12939453 309.15844727 C17.03462437 311.97204811 16.82853188 314.61696433 16.49879456 317.39978027 C15.8514979 323.75031566 15.87067756 330.06694851 15.88989258 336.44506836 C15.88949065 338.45636089 15.88907892 340.46765344 15.88829839 342.47894585 C15.8881351 344.62187703 15.89014948 346.76479837 15.89246559 348.9077282 C15.89612695 353.39364311 15.88690126 357.87947516 15.87467957 362.3653717 C15.87265764 363.12566034 15.87063571 363.88594897 15.86855251 364.66927665 C15.86438472 366.22283881 15.86018197 367.77640088 15.85594499 369.32996285 C15.8278975 379.75803015 15.80767993 390.18591254 15.82495117 400.61401367 C15.83654201 407.67057346 15.82682778 414.72675573 15.79289359 421.78324801 C15.77581977 425.50771731 15.76932742 429.23150518 15.789011 432.95597649 C15.81078703 437.11301153 15.78566967 441.26854296 15.75708008 445.42553711 C15.77087204 446.64197906 15.784664 447.85842102 15.7988739 449.11172485 C15.65538253 459.90866739 11.50876101 467.46225129 4.6875 475.6875 C4.01074219 476.51636719 3.33398438 477.34523438 2.63671875 478.19921875 C2.09660156 478.79347656 1.55648437 479.38773438 1 480 C0.67 480 0.34 480 0 480 C-0.00496522 479.03870273 -0.00496522 479.03870273 -0.01003075 478.05798531 C-0.09188735 462.33477526 -0.18417288 446.61166422 -0.28752708 430.88858223 C-0.33727043 423.28446508 -0.38371121 415.6803567 -0.421875 408.07617188 C-0.45521669 401.43457769 -0.49526584 394.79306043 -0.54279006 388.15155208 C-0.56764515 384.64745794 -0.58953703 381.14341205 -0.60334396 377.63925552 C-0.60869117 348.19850254 -0.60869117 348.19850254 -4 319 C-4.09612701 317.03924071 -4.15352733 315.07626932 -4.17578125 313.11328125 C-4.19962891 312.00919922 -4.22347656 310.90511719 -4.24804688 309.76757812 C-4.29064785 307.48390749 -4.32209604 305.19999861 -4.34179688 302.91601562 C-4.6642242 289.99642785 -8.99553054 278.59806857 -17.84375 269 C-19.81360438 267.19160909 -21.85383916 265.59418062 -24 264 C-24.69609375 263.41605469 -25.3921875 262.83210938 -26.109375 262.23046875 C-40.54611719 251.40291211 -60.56637609 250.3105922 -77.90917969 250.31298828 C-84.90974535 250.28934411 -91.63223855 249.84659077 -98.56829262 248.93245411 C-113.71454053 246.95836509 -128.65695189 246.52694928 -143.9140625 246.48828125 C-146.47765936 246.47137746 -149.04124822 246.45321992 -151.60482788 246.43388367 C-157.58215402 246.39174578 -163.55945485 246.36192307 -169.53687608 246.33856028 C-176.36209354 246.3111596 -183.18717736 246.26727591 -190.01229787 246.22227156 C-204.00812516 246.13033968 -218.00399473 246.05824946 -232 246 C-229.54888695 241.6360005 -226.88118842 239.16831708 -223 236 C-222.48693802 235.13540161 -221.97387604 234.27080322 -221.44526672 233.38000488 C-218.20208664 230.22338219 -216.17525202 230.40947201 -211.77706909 230.36997986 C-210.79900299 230.38646072 -209.82093689 230.40294159 -208.81323242 230.41992188 C-207.25843422 230.41624352 -207.25843422 230.41624352 -205.67222595 230.41249084 C-203.41764415 230.41031646 -201.16302905 230.41962519 -198.90852928 230.4389801 C-195.31840136 230.46906058 -191.72946535 230.46800573 -188.13923645 230.4588623 C-179.20532585 230.44257709 -170.271778 230.47960517 -161.33795166 230.51544189 C-153.81395667 230.54365222 -146.29047153 230.55084952 -138.76644325 230.53187561 C-135.26869408 230.53126751 -131.77205408 230.56022735 -128.27445984 230.59069824 C-114.37346213 230.618456 -101.78889298 228.93964092 -88.31945515 225.53902912 C-83.21367358 224.35247246 -78.02755884 223.94264486 -72.8125 223.5 C-51.56672573 221.30468281 -29.67320636 216.99002842 -15 200 C-12.34602542 196.14242025 -10.09746616 192.18324727 -8 188 C-7.65066406 187.30390625 -7.30132812 186.6078125 -6.94140625 185.890625 C-3.57882976 178.61845002 -3.75719883 170.91659031 -3.5 163.0625 C-3.43053958 160.94910233 -3.35770855 158.83581232 -3.28125 156.72265625 C-3.25095703 155.79203369 -3.22066406 154.86141113 -3.18945312 153.90258789 C-3 151 -3 151 -2.52207947 148.14285278 C-1.68870788 142.40282085 -1.63827942 136.60121695 -1.45727539 130.81176758 C-1.41545419 129.53065755 -1.37363298 128.24954752 -1.33054447 126.92961597 C-0.91965045 113.62526006 -0.77716029 100.32159565 -0.68359375 87.01171875 C-0.66293455 84.47483553 -0.64193643 81.93795506 -0.62062073 79.40107727 C-0.5663227 72.8337735 -0.51652042 66.26644368 -0.46777344 59.69909668 C-0.4222851 53.62053852 -0.37241972 47.54201549 -0.32291877 41.46348894 C-0.21046124 27.64236192 -0.10334969 13.82119792 0 0 Z " fill="#F7F8F8" transform="translate(494,147)"/>
<path d="M0 0 C4.1790327 0.66828881 7.57818378 2.01470442 11.2890625 3.9609375 C11.98201416 4.31599365 12.67496582 4.6710498 13.38891602 5.03686523 C20.45262384 8.78685473 26.50323078 13.53089609 32.6640625 18.5859375 C34.24471189 19.77700769 35.8277752 20.96488636 37.4140625 22.1484375 C48.91974432 31.09730114 48.91974432 31.09730114 51.6640625 36.5859375 C51.79957126 39.28714115 51.87675352 41.96130165 51.90234375 44.6640625 C51.9104155 45.46825623 51.91848724 46.27244995 51.92680359 47.10101318 C51.94064548 48.8057642 51.95136717 50.51054295 51.95922852 52.21533203 C51.9764046 54.81206494 52.02028334 57.40751226 52.06445312 60.00390625 C52.07458355 61.66144898 52.08309856 63.31900253 52.08984375 64.9765625 C52.10735184 65.74865051 52.12485992 66.52073853 52.14289856 67.31622314 C52.1220566 72.54429156 51.06752506 75.41303324 47.6640625 79.5859375 C47.23205032 80.12593887 46.80003815 80.66594025 46.35493469 81.2223053 C44.02144295 83.1041888 42.42663587 82.99797456 39.44921875 83.0534668 C38.38380859 83.07906174 37.31839844 83.10465668 36.22070312 83.13102722 C34.49110352 83.14544609 34.49110352 83.14544609 32.7265625 83.16015625 C31.53611328 83.1748848 30.34566406 83.18961334 29.11914062 83.20478821 C26.5939782 83.22876924 24.06872207 83.24416944 21.54345703 83.25170898 C17.70570046 83.27320429 13.87202515 83.3532965 10.03515625 83.43554688 C7.578146 83.45155368 5.12110976 83.46403362 2.6640625 83.47265625 C1.52718994 83.50453537 0.39031738 83.53641449 -0.78100586 83.56925964 C-9.74982291 83.49459956 -14.66709622 80.38991462 -21.3359375 74.5859375 C-22.21949165 73.87926186 -22.21949165 73.87926186 -23.12089539 73.15830994 C-24.45479048 72.09088789 -25.74246694 70.96632698 -27.0234375 69.8359375 C-27.85230469 69.11921875 -28.68117188 68.4025 -29.53515625 67.6640625 C-31.3359375 65.5859375 -31.3359375 65.5859375 -31.3359375 61.5859375 C-29.10546875 59.5859375 -29.10546875 59.5859375 -26.1484375 57.5859375 C-15.03718394 50.20352893 -15.03718394 50.20352893 -9.7355957 38.41040039 C-8.73636272 31.34862499 -9.01545009 24.1013897 -9.03320312 16.98242188 C-8.86327105 6.36440773 -8.86327105 6.36440773 -6.23046875 2.69140625 C-3.3359375 0.5859375 -3.3359375 0.5859375 0 0 Z " fill="#FBFCFC" transform="translate(381.3359375,226.4140625)"/>
<path d="M0 0 C4.25413356 3.31229802 5.78626406 5.29594059 6.46557617 10.71191406 C6.66080798 16.05847716 6.51649039 21.40569334 6.37426758 26.75195312 C5.98305231 39.03557555 5.98305231 39.03557555 12.15283203 49.33959961 C12.76239746 49.88753174 13.37196289 50.43546387 14 51 C14.91144775 51.85670288 14.91144775 51.85670288 15.84130859 52.73071289 C18.18028445 54.86541294 20.64771031 56.74694684 23.21875 58.59375 C23.9509375 59.1196875 24.683125 59.645625 25.4375 60.1875 C26.11683594 60.65542969 26.79617188 61.12335938 27.49609375 61.60546875 C28.24052734 62.29576172 28.24052734 62.29576172 29 63 C29 63.99 29 64.98 29 66 C26.875 68.05078125 26.875 68.05078125 24 70.3125 C22.99710938 71.10398437 21.99421875 71.89546875 20.9609375 72.7109375 C19.98382812 73.46632813 19.00671875 74.22171875 18 75 C17.22914063 75.61101562 16.45828125 76.22203125 15.6640625 76.8515625 C10.51265781 80.85821059 6.34054309 83.22858685 -0.35351562 83.30639648 C-1.39809937 83.32238388 -2.44268311 83.33837128 -3.5189209 83.35484314 C-4.6367395 83.36020584 -5.75455811 83.36556854 -6.90625 83.37109375 C-8.06370728 83.38012222 -9.22116455 83.3891507 -10.41369629 83.39845276 C-12.85796526 83.41294313 -15.30227291 83.42183897 -17.74658203 83.42553711 C-21.4866639 83.4374575 -25.2251087 83.48667879 -28.96484375 83.53710938 C-31.34113779 83.54657106 -33.71744195 83.55380731 -36.09375 83.55859375 C-37.2115686 83.57812607 -38.32938721 83.59765839 -39.4810791 83.61778259 C-47.22372741 83.57273334 -47.22372741 83.57273334 -51.18164062 80.65258789 C-55.47279414 74.39273519 -54.37595738 66.30709401 -54.45996094 58.9777832 C-54.48652332 57.20960334 -54.52740018 55.44157711 -54.58300781 53.67407227 C-55.09795369 37.09498653 -55.09795369 37.09498653 -50.59375 31.79296875 C-47.53665107 29 -47.53665107 29 -45 29 C-45 28.34 -45 27.68 -45 27 C-43.26953125 25.40625 -43.26953125 25.40625 -40.8125 23.5 C-39.43771484 22.43265625 -39.43771484 22.43265625 -38.03515625 21.34375 C-37.03355469 20.5703125 -36.03195312 19.796875 -35 19 C-33.98808594 18.1853125 -32.97617187 17.370625 -31.93359375 16.53125 C-9.13819684 -1.70012964 -9.13819684 -1.70012964 0 0 Z " fill="#FBFCFC" transform="translate(649,226)"/>
<path d="M0 0 C1.52574898 -0.0099852 1.52574898 -0.0099852 3.08232117 -0.02017212 C5.23153886 -0.0302825 7.38078785 -0.03498964 9.5300293 -0.03466797 C12.80245281 -0.03903346 16.07351872 -0.07535002 19.34570312 -0.11328125 C21.4387975 -0.11915141 23.53189824 -0.12311947 25.625 -0.125 C26.59609207 -0.13937103 27.56718414 -0.15374207 28.56770325 -0.16854858 C38.19370013 -0.10446163 44.17688033 3.57300141 51.19921875 9.8359375 C52.28596606 10.7844185 53.37319836 11.73234412 54.4609375 12.6796875 C55.22736572 13.36224609 55.22736572 13.36224609 56.00927734 14.05859375 C57.69169559 15.52888172 57.69169559 15.52888172 60.40625 17.3671875 C62.51171875 19.3359375 62.51171875 19.3359375 63.140625 21.875 C62.51171875 24.3359375 62.51171875 24.3359375 60.3515625 26.109375 C59.39378906 26.63789063 58.43601562 27.16640625 57.44921875 27.7109375 C50.10061535 32.0709197 44.91918806 36.36712835 41.51171875 44.3359375 C41.10787002 47.89205384 41.10787002 47.89205384 41.2109375 51.67578125 C41.20329672 53.082687 41.19480705 54.48958835 41.18554688 55.89648438 C41.18775483 58.08653376 41.19924714 60.27569357 41.22680664 62.46557617 C41.36197685 76.29488729 41.36197685 76.29488729 37.46875 80.83984375 C36.49292969 81.66355469 35.51710938 82.48726562 34.51171875 83.3359375 C24.44657774 81.85361673 16.55368946 74.79257627 9.4296875 68.0078125 C6.23386483 65.08151704 2.89021916 62.46279332 -0.55078125 59.8359375 C-16.76940689 47.34560438 -16.76940689 47.34560438 -19.48828125 40.3359375 C-19.7029687 37.82048615 -19.81605072 35.41811396 -19.82421875 32.90234375 C-19.83087555 32.18739243 -19.83753235 31.4724411 -19.84439087 30.73582458 C-19.85449295 29.22714807 -19.85920865 27.7184271 -19.85888672 26.2097168 C-19.86326071 23.9092408 -19.89960323 21.6106838 -19.9375 19.31054688 C-19.94336872 17.84115236 -19.94733775 16.37174878 -19.94921875 14.90234375 C-19.96358978 14.21886368 -19.97796082 13.53538361 -19.99276733 12.83119202 C-19.96036837 9.42243373 -19.54302199 7.42676975 -17.77197266 4.48803711 C-12.50749675 -0.47308702 -6.8758789 0.0156609 0 0 Z " fill="#FAFBFB" transform="translate(614.48828125,457.6640625)"/>
<path d="M0 0 C1.50208511 -0.01913956 1.50208511 -0.01913956 3.03451538 -0.03866577 C4.11061066 -0.04089142 5.18670593 -0.04311707 6.29541016 -0.04541016 C7.96357285 -0.05539536 7.96357285 -0.05539536 9.66543579 -0.06558228 C12.01733751 -0.07570459 14.36926793 -0.08039943 16.72119141 -0.08007812 C20.31412242 -0.08444791 23.90582173 -0.12076449 27.49853516 -0.15869141 C29.78498929 -0.16456032 32.07144926 -0.16852921 34.35791016 -0.17041016 C35.42995697 -0.18478119 36.50200378 -0.19915222 37.60653687 -0.21395874 C43.67311083 -0.17691457 47.38646439 0.14501052 51.95947266 4.29052734 C52.83447266 6.54052734 52.83447266 6.54052734 52.95947266 8.29052734 C53.61947266 8.29052734 54.27947266 8.29052734 54.95947266 8.29052734 C55.08408835 12.4162654 55.17428169 16.54125865 55.23413086 20.66845703 C55.25910678 22.06904204 55.29310082 23.46949895 55.33666992 24.86962891 C55.58736512 33.13962116 55.74087764 39.85951487 49.95947266 46.29052734 C49.20408203 47.16580078 48.44869141 48.04107422 47.67041016 48.94287109 C42.60921801 53.89403732 37.41418892 58.5259468 31.87353516 62.93505859 C29.80351047 64.6082823 27.79097888 66.29534399 25.79541016 68.05224609 C11.34434927 80.74510179 11.34434927 80.74510179 3.95947266 83.29052734 C0.64820274 82.68066428 -1.3026097 82.03106559 -3.69042969 79.63476562 C-5.52373979 76.45150277 -5.44197931 74.02690293 -5.48193359 70.36474609 C-5.49514145 69.69893021 -5.5083493 69.03311432 -5.5219574 68.34712219 C-5.56272571 66.22404849 -5.58446679 64.10140267 -5.60302734 61.97802734 C-5.62694823 59.8654987 -5.6553246 57.75336511 -5.69480896 55.6410675 C-5.73006595 53.71668505 -5.75010245 51.79204143 -5.76928711 49.86743164 C-6.28499806 43.06663852 -8.04071196 38.00026217 -13.04052734 33.29052734 C-15.9774662 30.97570699 -19.09250861 28.94884728 -22.22021484 26.90380859 C-26.86780286 23.74938183 -26.86780286 23.74938183 -27.80615234 21.2565918 C-28.04052734 19.29052734 -28.04052734 19.29052734 -26.77490234 17.46630859 C-8.24966377 0.07154718 -8.24966377 0.07154718 0 0 Z " fill="#FBFCFC" transform="translate(378.04052734375,457.70947265625)"/>
<path d="M0 0 C0.33 0 0.66 0 1 0 C1.495 3.96 1.495 3.96 2 8 C2.33 5.36 2.66 2.72 3 0 C3.33 0 3.66 0 4 0 C4.0093457 0.58789307 4.01869141 1.17578613 4.02832031 1.78149414 C4.41279708 21.10899064 6.01517019 39.28805598 20 54 C29.73151119 61.88560058 39.26088741 63.09283507 51.40625 63.24609375 C53.22135844 63.27906241 55.03646249 63.31227349 56.8515625 63.34570312 C59.66370351 63.3927346 62.4758308 63.43715926 65.28808594 63.47680664 C77.00297647 63.64944931 88.40623525 64.23514844 100 66 C99.67 66.99 99.34 67.98 99 69 C91.94793693 69.89252018 84.92605418 70.09954166 77.828125 70.17578125 C76.89730103 70.18769501 75.96647705 70.19960876 75.00744629 70.21188354 C71.11368023 70.26073495 67.22022004 70.30804425 63.32617188 70.32592773 C46.45191994 70.41812901 31.07334511 70.92546734 18 83 C4.45658421 96.8610652 3.85920141 118.55974319 3.40625 136.84765625 C2.9656103 140.26685088 2.12616301 141.4003785 0 144 C-0.01981934 143.39115967 -0.03963867 142.78231934 -0.06005859 142.1550293 C-0.38975167 127.66325219 -0.38975167 127.66325219 -2.48046875 113.359375 C-3 111 -3 111 -3.36328125 108.328125 C-4.72634678 98.58014121 -8.80116986 88.87161059 -16 82 C-29.85362117 72.42539834 -42.97961147 70.71980045 -59.3125 70.4375 C-62.532646 70.36858748 -65.75264144 70.29351066 -68.97265625 70.21875 C-69.75671844 70.2013829 -70.54078064 70.18401581 -71.34860229 70.16612244 C-80.24218958 69.96320441 -89.12008182 69.52431678 -98 69 C-98.33 68.01 -98.66 67.02 -99 66 C-90.13715244 64.44637822 -81.4849296 63.82675246 -72.4921875 63.76171875 C-71.47110901 63.75294708 -70.45003052 63.74417542 -69.39801025 63.73513794 C-65.15341751 63.70510369 -60.90925342 63.68521914 -56.66455078 63.69458008 C-41.48203424 63.70735411 -28.12120572 63.4614844 -15.9921875 53.04296875 C-2.26524745 38.96612631 -1.118282 18.59962241 0 0 Z " fill="#0B1217" transform="translate(512,316)"/>
<path d="M0 0 C6.74272981 5.56427072 10.10015918 12.97013881 11.37890625 21.5390625 C11.83155334 30.7380195 8.67832359 38.45388835 2.8125 45.4375 C-3.13944044 51.62516086 -10.44525227 55.0064669 -19.0625 55.3125 C-28.0264306 55.17981024 -36.65351117 51.27705241 -43 45 C-49.75638301 36.75390225 -51.54022255 29.02942316 -51.3828125 18.44921875 C-50.56333736 11.06558046 -46.55300739 5.75972062 -41 1 C-40.49855469 0.56945312 -39.99710938 0.13890625 -39.48046875 -0.3046875 C-27.23626175 -9.99682325 -12.52662027 -8.30273818 0 0 Z " fill="#F2F6F8" transform="translate(280,665)"/>
<path d="M0 0 C6.89618971 4.18235696 12.83072762 9.76484904 15.8203125 17.37109375 C17.9550214 26.46387278 17.17700787 35.89235238 12.3125 43.9375 C8.40482831 49.91933173 2.91213733 55.37122805 -4.03515625 57.55859375 C-12.81460024 59.09194332 -22.17146766 59.57747905 -29.8046875 54.42578125 C-35.72995474 49.61973116 -42.68016282 42.96212104 -43.85107422 35.05004883 C-43.9650243 32.89943095 -43.97938355 30.77819547 -43.9375 28.625 C-43.92589844 27.86767578 -43.91429687 27.11035156 -43.90234375 26.33007812 C-43.63260995 17.1511955 -41.2666753 11.76401322 -34.8359375 5.0546875 C-25.56133306 -3.32751514 -11.49568004 -5.22369387 0 0 Z " fill="#F4F8F9" transform="translate(560.5625,661)"/>
<path d="M0 0 C7.948589 4.76237422 13.5859507 9.98265269 16.4375 19.015625 C18.27163223 28.69475843 16.62480526 37.0915648 11.40625 45.35546875 C7.14740082 51.32005856 2.15097522 56.27457384 -5.16796875 58.09765625 C-15.51051165 59.0236415 -24.94014915 57.82641141 -33.16796875 51.09765625 C-40.79718865 43.05511519 -42.64726007 35.05312967 -42.59423828 24.32543945 C-42.41123222 18.60744666 -41.47814886 14.87902752 -38.16796875 10.09765625 C-37.59046875 9.21078125 -37.01296875 8.32390625 -36.41796875 7.41015625 C-27.3257481 -1.93462608 -12.13422653 -5.68378803 0 0 Z " fill="#F2F6F8" transform="translate(631.16796875,660.90234375)"/>
<path d="M0 0 C36.16112532 0 36.16112532 0 46.6875 9.52734375 C50.46607659 13.91779212 50.74527242 18.40544913 50.4765625 24.0625 C49.58131654 29.58073741 47.33808475 33.23239064 42.88671875 36.59765625 C40.96031524 37.82603788 39.02942928 38.95255263 37 40 C40.24429494 46.95435501 45.20669843 53.05630605 50 59 C50 59.33 50 59.66 50 60 C45.05 60 40.1 60 35 60 C34.46375 59.01 33.9275 58.02 33.375 57 C31.29650652 53.32151513 28.82382356 50.07898956 26.171875 46.796875 C25 45 25 45 25 42 C23.9790625 42.2475 23.9790625 42.2475 22.9375 42.5 C18.93763809 43.18082756 14.71583773 43.85791887 11 42 C11 48.27 11 54.54 11 61 C7.37 61 3.74 61 0 61 C0 40.87 0 20.74 0 0 Z " fill="#F5F8F9" transform="translate(806,659)"/>
<path d="M0 0 C9 0 9 0 11.8203125 2.2734375 C12.58085938 3.29695312 13.34140625 4.32046875 14.125 5.375 C14.53967529 5.91793701 14.95435059 6.46087402 15.3815918 7.02026367 C16.62012159 8.65910698 17.81402702 10.32286139 19 12 C19.99580078 13.37478516 19.99580078 13.37478516 21.01171875 14.77734375 C22.70726474 17.16434884 24.36246628 19.5729411 26 22 C27.61444536 24.39161188 29.25109138 26.70143439 31 29 C31.66 29 32.32 29 33 29 C34.53457887 26.98854004 35.96228177 24.96996717 37.375 22.875 C42.94129605 14.82923837 49.06846909 6.93153091 56 0 C58.64 0 61.28 0 64 0 C64 20.13 64 40.26 64 61 C60.04 61 56.08 61 52 61 C52 49.12 52 37.24 52 25 C51.34 25 50.68 25 50 25 C49.61714844 26.10794922 49.61714844 26.10794922 49.2265625 27.23828125 C47.9353332 30.14560328 46.54637097 31.88204039 44.375 34.1875 C40.00551885 38.94111137 35.98541311 43.92283808 32 49 C27.21702443 44.65673513 23.86570176 39.61803075 20.3125 34.25 C19.16687819 32.52330254 18.01733451 30.79919865 16.86328125 29.078125 C16.10978394 27.93972168 16.10978394 27.93972168 15.34106445 26.77832031 C14.10763632 24.86846021 14.10763632 24.86846021 12 24 C12 35.55 12 47.1 12 59 C10 60 10 60 0 60 C0 40.2 0 20.4 0 0 Z " fill="#F4F7F9" transform="translate(662,659)"/>
<path d="M0 0 C15.18 0 30.36 0 46 0 C46 3.96 46 7.92 46 12 C45 13 45 13 41.76538086 13.11352539 C40.33185874 13.11336631 38.89833088 13.10767407 37.46484375 13.09765625 C36.33496788 13.09553383 36.33496788 13.09553383 35.18226624 13.09336853 C32.7673044 13.08775376 30.35243399 13.07519883 27.9375 13.0625 C26.30403779 13.0574869 24.67057414 13.05292366 23.03710938 13.04882812 C19.02470415 13.03777954 15.01236759 13.02050506 11 13 C11 16.63 11 20.26 11 24 C20.9 24 30.8 24 41 24 C41 27.96 41 31.92 41 36 C31.1 36 21.2 36 11 36 C11 39.63 11 43.26 11 47 C11.77601563 46.99476318 12.55203125 46.98952637 13.3515625 46.98413086 C16.90103328 46.96321736 20.45049104 46.95029432 24 46.9375 C25.22074219 46.92912109 26.44148437 46.92074219 27.69921875 46.91210938 C33.89960932 46.89535156 39.8726207 47.02727854 46 48 C46 51.96 46 55.92 46 60 C30.82 60 15.64 60 0 60 C0 40.2 0 20.4 0 0 Z " fill="#F1F5F6" transform="translate(744,659)"/>
<path d="M0 0 C2.31058353 1.52170893 4.03364984 3.03364984 6 5 C4.47291037 8.43595166 2.40072955 11.11912454 0 14 C-4 12 -4 12 -5.70703125 10.94921875 C-8.84554934 9.6499685 -11.55017333 9.69834523 -14.9375 9.6875 C-16.14277344 9.67074219 -17.34804688 9.65398438 -18.58984375 9.63671875 C-22.94753675 10.10094034 -25.45947818 11.4711488 -28.546875 14.53515625 C-32.65194414 19.74646156 -33.41267975 22.53129349 -33.34375 29.10546875 C-32.64299922 35.00610883 -29.54569869 38.56214075 -25.3125 42.5 C-18.27626765 45.68621842 -11.16554597 44.12312473 -4 42 C-3.67 39.36 -3.34 36.72 -3 34 C-9.435 34.495 -9.435 34.495 -16 35 C-16.09765625 26.50390625 -16.09765625 26.50390625 -16 24 C-15 23 -15 23 -12.77514648 22.97827148 C-11.81680908 23.02540283 -10.85847168 23.07253418 -9.87109375 23.12109375 C-8.47395142 23.18574829 -8.47395142 23.18574829 -7.04858398 23.25170898 C-5.85692627 23.31302002 -4.66526855 23.37433105 -3.4375 23.4375 C2.2240625 23.7159375 2.2240625 23.7159375 8 24 C8 33.24 8 42.48 8 52 C-1.9246382 56.9623191 -13.60960609 60.18076318 -24.66015625 57.30859375 C-34.06925728 53.91677603 -39.34713365 48.86338478 -43.84155273 39.88061523 C-47.39125511 31.80281392 -47.66637169 22.65460725 -45.17578125 14.203125 C-41.08303226 5.8740218 -33.19815187 -0.38230197 -24.52734375 -3.375 C-15.85936032 -5.51855077 -8.04184061 -3.6165174 0 0 Z " fill="#F2F7F8" transform="translate(348,662)"/>
<path d="M0 0 C2.1996245 1.5467479 4.04070178 3.14382274 6 5 C4.70306052 8.89081843 3.29300888 11.48181674 0 14 C-2.69823166 13.91296027 -4.02975577 12.97994051 -6.265625 11.47265625 C-10.99352948 8.92634198 -15.77571314 9.27684516 -21 10 C-25.11746363 11.57071219 -28.11262801 13.30962909 -30.19140625 17.26953125 C-31.13264553 20.44791898 -31.30088778 23.18664787 -31.3125 26.5 C-31.32925781 27.6034375 -31.34601563 28.706875 -31.36328125 29.84375 C-30.95827232 33.36253726 -30.10202391 35.17756413 -28 38 C-22.94374557 41.87287574 -19.21058203 43.13646005 -12.9375 43.25 C-12.08027344 43.27578125 -11.22304688 43.3015625 -10.33984375 43.328125 C-7.52313855 42.93312794 -6.72217834 42.21039712 -5 40 C-4.505 39.01 -4.505 39.01 -4 38 C-0.10806661 38.57658272 2.04539841 40.4999525 5 43 C5.99 43.66 6.98 44.32 8 45 C2.31681685 51.39754974 -3.63975648 56.77144014 -12.28515625 58.44140625 C-21.94495343 58.96954331 -29.75838337 54.04804042 -36.87109375 48.00390625 C-43.2550694 41.99476954 -46.02765889 34.31958673 -46.5625 25.6875 C-46.26810913 16.92937155 -42.01931094 9.51703435 -35.8125 3.5 C-24.91973322 -5.27269807 -12.25777521 -6.59223993 0 0 Z " fill="#F1F5F6" transform="translate(446,662)"/>
<path d="M0 0 C3.96 0 7.92 0 12 0 C12 15.84 12 31.68 12 48 C22.56 48 33.12 48 44 48 C44 52.29 44 56.58 44 61 C22.22 60.505 22.22 60.505 0 60 C0 40.2 0 20.4 0 0 Z " fill="#F9FCFC" transform="translate(177,659)"/>
<path d="M0 0 C5.776359 3.141378 10.0638207 6.65246548 12.37890625 12.9296875 C13.65717623 18.409403 12.48022314 22.365684 9.81640625 27.2421875 C6.95145916 31.5163429 4.46321486 34.6000893 -0.62109375 35.9296875 C-6.27077546 36.64445208 -10.93940785 36.74050034 -16.12109375 34.2421875 C-20.47501108 30.21481397 -24.13627183 26.19291196 -25.02734375 20.1953125 C-25.22915932 13.70357839 -24.79149949 9.49462852 -20.38671875 4.5546875 C-14.3086657 -1.03927283 -7.86434081 -3.21137017 0 0 Z " fill="#131C24" transform="translate(266.62109375,671.0703125)"/>
<path d="M0 0 C3.63 0 7.26 0 11 0 C11 15.84 11 31.68 11 48 C21.23 48 31.46 48 42 48 C42 51.96 42 55.92 42 60 C27.81 60 13.62 60 -1 60 C-1.0786492 39.94445287 -1.03373216 20.0285606 0 0 Z " fill="#F5F8F9" transform="translate(466,659)"/>
<path d="M0 0 C6.64225448 1.89778699 11.24025079 5.18891776 15.3125 10.8125 C16.80878531 15.57340782 16.53337931 19.63988276 14.75 24.1875 C11.45916686 29.47633897 8.35261084 33.71982034 2.140625 35.546875 C-2.88459941 36.61060863 -7.75618532 37.33874657 -12.32421875 34.61328125 C-16.82696455 30.77637587 -20.51123842 26.95909144 -21.50390625 20.94921875 C-21.62610517 14.14681203 -21.226833 9.81790281 -16.703125 4.5859375 C-11.26399973 -0.47893603 -7.34573082 -0.89460863 0 0 Z " fill="#111B23" transform="translate(550,671)"/>
<path d="M0 0 C4.80169966 1.99044815 8.00241987 4.63966346 11.0625 8.8125 C12.75315943 14.56074206 12.89759846 19.64167458 10.4375 25.1875 C7.61138512 30.23413371 3.50740408 34.16419864 -2 36 C-6.85574006 36.50981092 -10.82445375 36.53232283 -15.3125 34.5 C-20.85605259 29.34320689 -23.30305443 25.21775065 -23.625 17.5 C-23.38720219 11.64337962 -22.20156591 7.21194015 -18 3 C-12.3906692 -1.11350925 -6.70559424 -0.97492682 0 0 Z " fill="#131B23" transform="translate(624,671)"/>
<path d="M0 0 C0.99 0 1.98 0 3 0 C5.1160473 6.34814189 5.02648859 8.83061942 2 15 C2 16.65 2 18.3 2 20 C-5.26 20.33 -12.52 20.66 -20 21 C-20.33 24.63 -20.66 28.26 -21 32 C-14.565 31.505 -14.565 31.505 -8 31 C-7.70703125 37.0546875 -7.70703125 37.0546875 -8 39 C-13.47421165 42.64947443 -20.5612256 42.75503543 -27 42 C-32.65808431 39.17095785 -36.55557698 34.82900874 -39 29 C-39.67716958 23.78736905 -39.68106352 19.36212703 -37.3125 14.625 C-29.87614679 6.18373419 -29.87614679 6.18373419 -23.8203125 5.796875 C-22.60085938 5.78140625 -21.38140625 5.7659375 -20.125 5.75 C-18.91070312 5.72421875 -17.69640625 5.6984375 -16.4453125 5.671875 C-12.74418821 6.02436303 -11.01644008 6.91897165 -8 9 C-6.515 9.495 -6.515 9.495 -5 10 C-4.175 9.0925 -3.35 8.185 -2.5 7.25 C-2.0359375 6.73953125 -1.571875 6.2290625 -1.09375 5.703125 C0.36024492 3.77639485 0.36024492 3.77639485 0 0 Z " fill="#0B141E" transform="translate(353,665)"/>
<path d="M0 0 C1.28140085 10.75325911 1.15231228 21.5269269 1.13037109 32.33886719 C1.12496563 35.52022972 1.13036581 38.70145401 1.13671875 41.8828125 C1.13605872 43.91145864 1.13477912 45.9401047 1.1328125 47.96875 C1.13483673 48.91665405 1.13686096 49.86455811 1.13894653 50.84118652 C1.13579437 51.72310669 1.13264221 52.60502686 1.12939453 53.51367188 C1.12820114 54.67183411 1.12820114 54.67183411 1.12698364 55.85339355 C1 58 1 58 0 62 C-4.29 62 -8.58 62 -13 62 C-13 41.87 -13 21.74 -13 1 C-1 0 -1 0 0 0 Z " fill="#F0F3F4" transform="translate(385,658)"/>
<path d="M0 0 C0.33 0 0.66 0 1 0 C0.57888034 10.94911127 -5.08509486 19.96098754 -12.5078125 27.74609375 C-16.63105519 31.47510791 -21.13378621 34.33847899 -26 37 C-26.55695557 37.3196875 -27.11391113 37.639375 -27.68774414 37.96875 C-33.60873942 41.1876337 -39.77265961 42.7473058 -46.3125 44.25 C-47.44864746 44.51377441 -48.58479492 44.77754883 -49.75537109 45.04931641 C-59.61806385 47.19313904 -68.95887146 47.65327824 -79 47 C-78.67 46.01 -78.34 45.02 -78 44 C-78.66 43.67 -79.32 43.34 -80 43 C-79.67 42.34 -79.34 41.68 -79 41 C-78.34 41 -77.68 41 -77 41 C-77 40.34 -77 39.68 -77 39 C-76.32646484 38.93530518 -75.65292969 38.87061035 -74.95898438 38.80395508 C-54.89920211 36.81267642 -32.68668213 34.131196 -17 20 C-15.12501553 17.61981357 -15.12501553 17.61981357 -13.5 15.0625 C-7.5514214 6.2757107 -7.5514214 6.2757107 -3 4 C-2.505 4.99 -2.505 4.99 -2 6 C-1.34 4.02 -0.68 2.04 0 0 Z " fill="#181D25" transform="translate(488,324)"/>
<path d="M0 0 C-0.99 1.485 -0.99 1.485 -2 3 C-1.34 3.33 -0.68 3.66 0 4 C2.60931266 3.10636395 2.60931266 3.10636395 5 2 C3.81189395 5.56431814 3.05967325 5.81848033 -0.0625 7.6875 C-11.28311289 14.99601331 -17.98455056 24.94219746 -21.5788269 37.89918518 C-22.42849525 42.1373378 -22.36275694 46.43747745 -22.4140625 50.74609375 C-22.43342865 51.75720718 -22.4527948 52.76832062 -22.4727478 53.81007385 C-22.5322199 57.01913182 -22.57879916 60.22822628 -22.625 63.4375 C-22.66320957 65.62175988 -22.70226302 67.80600517 -22.7421875 69.99023438 C-22.83789458 75.32669281 -22.92303557 80.6632401 -23 86 C-23.33 86 -23.66 86 -24 86 C-24.33 82.37 -24.66 78.74 -25 75 C-27.92509086 78.90012114 -28.47535095 80.38308839 -29 85 C-29.33 85 -29.66 85 -30 85 C-30.07212547 78.33240089 -30.04948226 71.66773492 -30 65 C-29.99419922 63.72012207 -29.98839844 62.44024414 -29.98242188 61.12158203 C-29.96260063 57.63455803 -29.91227499 54.14879603 -29.84640503 50.66235352 C-29.82410567 49.28127874 -29.80997751 47.90004361 -29.80471802 46.51879883 C-29.72559415 29.87700167 -24.3316171 17.28158747 -12.75 5.5 C-8.18496568 1.0179663 -6.42995596 -0.13978165 0 0 Z " fill="#181E27" transform="translate(566,408)"/>
<path d="M0 0 C0.33 0.66 0.66 1.32 1 2 C1.70125 1.855625 2.4025 1.71125 3.125 1.5625 C6.50022618 2.07612138 6.7259616 2.55254896 8.75 5.125 C19.96961788 19.24918901 38.09688082 21.17759255 54.75 23.3125 C56.71895383 23.57726462 58.68770659 23.8435291 60.65625 24.11132812 C65.43535836 24.75819407 70.21672624 25.38472544 75 26 C75.495 27.485 75.495 27.485 76 29 C64.92761956 35.3879118 45.51726288 32.30176056 33.57324219 29.41308594 C19.85512017 25.46488743 6.12200589 18.18300883 -2 6 C-1.45945946 1.45945946 -1.45945946 1.45945946 0 0 Z " fill="#1B1E1F" transform="translate(548,339)"/>
<path d="M0 0 C3.56331377 -0.10807017 7.1233422 -0.18735316 10.6875 -0.25 C12.19860352 -0.30027344 12.19860352 -0.30027344 13.74023438 -0.3515625 C21.2503749 -0.45070627 21.2503749 -0.45070627 25.14453125 1.890625 C27.3485496 4.39624586 27.93287284 5.49654627 28.375 8.8125 C28 12 28 12 25.8125 14.8125 C20.66667641 18.81480723 14.93798354 18.12613678 8.6875 18.0625 C4.3871875 18.0315625 4.3871875 18.0315625 0 18 C0 12.06 0 6.12 0 0 Z " fill="#0F171E" transform="translate(816,672)"/>
<path d="M0 0 C7.11557789 -0.60301508 7.11557789 -0.60301508 10.75 1.875 C15.28013051 8.16684793 18.0283968 15.75380335 18.31640625 23.48828125 C18.35838135 24.58156738 18.40035645 25.67485352 18.44360352 26.80126953 C18.48283936 27.95997559 18.5220752 29.11868164 18.5625 30.3125 C18.6049585 31.48409668 18.64741699 32.65569336 18.69116211 33.86279297 C18.96833186 41.91242716 19.13180155 49.94546068 19 58 C17.02 58.495 17.02 58.495 15 59 C14.95101563 59.99902344 14.90203125 60.99804688 14.8515625 62.02734375 C14.77679688 63.31769531 14.70203125 64.60804688 14.625 65.9375 C14.55539062 67.22527344 14.48578125 68.51304687 14.4140625 69.83984375 C14.27742188 70.88269531 14.14078125 71.92554688 14 73 C13.01 73.495 13.01 73.495 12 74 C11.99857498 73.37518738 11.99714996 72.75037476 11.99568176 72.10662842 C11.97586017 65.55144412 11.9213219 58.99717547 11.84741211 52.44238281 C11.82434114 50.00234568 11.80986224 47.5622105 11.80444336 45.12207031 C11.79507422 41.59639141 11.75390717 38.07223171 11.70703125 34.546875 C11.7109639 33.4713739 11.71489655 32.3958728 11.71894836 31.28778076 C11.51698194 20.59293133 8.00147313 11.71964298 1.13671875 3.5234375 C0 2 0 2 0 0 Z " fill="#212529" transform="translate(472,422)"/>
<path d="M0 0 C0.66 0 1.32 0 2 0 C2 10.89 2 21.78 2 33 C-0.31 31.02 -2.62 29.04 -5 27 C-10.00916448 23.33630983 -15.13780313 20.98895965 -21 19 C-19.51263553 15.32245049 -17.49158399 13.52756784 -14.375 11.125 C-13.48683594 10.43535156 -12.59867187 9.74570312 -11.68359375 9.03515625 C-5.56903643 4.3980611 -5.56903643 4.3980611 -2.49609375 2.12890625 C-1.03273138 1.07890879 -1.03273138 1.07890879 0 0 Z " fill="#F6F9F8" transform="translate(430,514)"/>
<path d="M0 0 C3.60261395 1.44104558 5.70229347 2.30777719 8.62890625 4.49609375 C9.27150391 4.97240234 9.91410156 5.44871094 10.57617188 5.93945312 C11.23166016 6.43380859 11.88714844 6.92816406 12.5625 7.4375 C13.22185547 7.92798828 13.88121094 8.41847656 14.56054688 8.92382812 C15.82491374 9.86543199 17.08631791 10.81103167 18.34423828 11.76123047 C19.69860616 12.77451012 21.07842086 13.75369826 22.46484375 14.72265625 C22.97144531 15.14417969 23.47804688 15.56570313 24 16 C24 16.66 24 17.32 24 18 C22.2675 18.3403125 22.2675 18.3403125 20.5 18.6875 C12.90347644 20.61677583 7.62329863 25.00836661 2.34765625 30.64453125 C1.90292969 31.09183594 1.45820312 31.53914062 1 32 C0.67 32 0.34 32 0 32 C0 21.44 0 10.88 0 0 Z " fill="#F4F7F8" transform="translate(595,515)"/>
<path d="M0 0 C4.0599992 3.0449994 8.04758496 6.03791927 12 9.1875 C15.79524686 12.0565259 19.4832848 13.54819869 24 15 C24 15.66 24 16.32 24 17 C23.09378906 17.49628906 22.18757812 17.99257812 21.25390625 18.50390625 C14.63546977 22.17828901 8.42767797 25.90277314 2.57421875 30.75 C1 32 1 32 0 32 C0 21.44 0 10.88 0 0 Z " fill="#F4F6F6" transform="translate(595,215)"/>
<path d="M0 0 C0 10.56 0 21.12 0 32 C-2.64 30.02 -5.28 28.04 -8 26 C-10.65588634 24.18684683 -13.31443917 22.39223784 -16 20.625 C-16.67933594 20.17511719 -17.35867188 19.72523438 -18.05859375 19.26171875 C-19.70429561 18.17231048 -21.35193707 17.08583313 -23 16 C-20.18197103 13.79740264 -17.30473801 11.9976169 -14.1875 10.25 C-9.92438217 7.7437653 -6.67583771 4.98614668 -3.375 1.3203125 C-2 0 -2 0 0 0 Z " fill="#F3F5F5" transform="translate(432,215)"/>
<path d="M0 0 C0.84423523 -0.0033284 1.68847046 -0.0066568 2.55828857 -0.01008606 C4.35037697 -0.01514758 6.14247478 -0.01749462 7.93457031 -0.01733398 C10.62061144 -0.0194901 13.30622069 -0.03756838 15.9921875 -0.05664062 C26.63811533 -0.09025546 36.89422816 0.53056157 47.421875 2.16796875 C47.091875 3.15796875 46.761875 4.14796875 46.421875 5.16796875 C38.88976395 5.95015769 31.41753641 6.35699306 23.84765625 6.484375 C22.79781052 6.5051561 21.74796478 6.52593719 20.66630554 6.54734802 C17.35572011 6.61204846 14.04506439 6.67135361 10.734375 6.73046875 C8.47199832 6.77372984 6.20962841 6.81734637 3.94726562 6.86132812 C-1.56112645 6.96764665 -7.06958639 7.06955133 -12.578125 7.16796875 C-12.578125 6.50796875 -12.578125 5.84796875 -12.578125 5.16796875 C-13.898125 4.50796875 -15.218125 3.84796875 -16.578125 3.16796875 C-11.06960932 0.21697821 -6.18406407 0.00855821 0 0 Z " fill="#11161B" transform="translate(564.578125,379.83203125)"/>
<path d="M0 0 C0.33 0 0.66 0 1 0 C0.5650109 11.30971654 -5.43009753 19.97310728 -12.8515625 28.13671875 C-14.99825734 29.99848864 -16.22274735 30.62928076 -19 31 C-19.99 29.35 -20.98 27.7 -22 26 C-20.1109724 23.43242034 -18.21257075 20.87191534 -16.3125 18.3125 C-15.78205078 17.59126953 -15.25160156 16.87003906 -14.70507812 16.12695312 C-7.26704545 6.13352273 -7.26704545 6.13352273 -3 4 C-2.67 4.66 -2.34 5.32 -2 6 C-1.34 4.02 -0.68 2.04 0 0 Z " fill="#191F22" transform="translate(488,324)"/>
<path d="M0 0 C2.08229489 3.12344233 2.27619666 4.02912302 2.4140625 7.61328125 C2.47219116 8.98202393 2.47219116 8.98202393 2.53149414 10.37841797 C2.56235107 11.34666504 2.59320801 12.31491211 2.625 13.3125 C2.66294678 14.29621582 2.70089355 15.27993164 2.73999023 16.29345703 C3.0131642 23.86427841 3.11634758 31.42447966 3 39 C1.02 39.495 1.02 39.495 -1 40 C-1.04898437 40.99902344 -1.09796875 41.99804688 -1.1484375 43.02734375 C-1.22320312 44.31769531 -1.29796875 45.60804688 -1.375 46.9375 C-1.47941406 48.86916016 -1.47941406 48.86916016 -1.5859375 50.83984375 C-1.79089844 52.40412109 -1.79089844 52.40412109 -2 54 C-2.99 54.495 -2.99 54.495 -4 55 C-3.67 39.16 -3.34 23.32 -3 7 C-2.34 6.67 -1.68 6.34 -1 6 C-0.34227572 2.97065509 -0.34227572 2.97065509 0 0 Z " fill="#0F1518" transform="translate(488,441)"/>
<path d="M0 0 C49.17 0 98.34 0 149 0 C148.34 1.32 147.68 2.64 147 4 C146.01 4 145.02 4 144 4 C144 3.34 144 2.68 144 2 C96.48 1.67 48.96 1.34 0 1 C0 0.67 0 0.34 0 0 Z " fill="#E8E9EA" transform="translate(592,406)"/>
<path d="M0 0 C2.05142789 0.01005681 4.10286059 0.01917785 6.15429688 0.02734375 C11.12381917 0.0491272 16.0931048 0.08350592 21.0625 0.125 C21.0625 0.455 21.0625 0.785 21.0625 1.125 C5.7175 1.62 5.7175 1.62 -9.9375 2.125 C-10.2675 2.785 -10.5975 3.445 -10.9375 4.125 C-16.56350697 5.31296163 -22.14577026 5.24413877 -27.875 5.1875 C-28.74962891 5.18298828 -29.62425781 5.17847656 -30.52539062 5.17382812 C-32.66279047 5.16214834 -34.80015463 5.14421689 -36.9375 5.125 C-37.2675 4.135 -37.5975 3.145 -37.9375 2.125 C-25.27112237 -0.09164732 -12.82524835 -0.11037398 0 0 Z " fill="#24232B" transform="translate(450.9375,379.875)"/>
<path d="M0 0 C-7.41657544 2.35727837 -14.51487204 2.26515218 -22.25 2.1875 C-23.58479641 2.18063666 -24.91959469 2.17412905 -26.25439453 2.16796875 C-36.85488088 2.09802879 -47.42325427 1.6968209 -58 1 C-58.33 0.34 -58.66 -0.32 -59 -1 C-51.60290309 -1.17687866 -44.20564686 -1.34283967 -36.80799294 -1.49477577 C-33.37314896 -1.56566714 -29.9384739 -1.64035018 -26.50390625 -1.72363281 C-22.55750086 -1.81916177 -18.61085002 -1.89831757 -14.6640625 -1.9765625 C-13.42757965 -2.00875885 -12.1910968 -2.0409552 -10.91714478 -2.0741272 C-9.77611298 -2.09429901 -8.63508118 -2.11447083 -7.45947266 -2.13525391 C-6.451315 -2.15746002 -5.44315735 -2.17966614 -4.40444946 -2.20254517 C-2 -2 -2 -2 0 0 Z " fill="#1A2223" transform="translate(660,310)"/>
<path d="M0 0 C0.33 0 0.66 0 1 0 C1.92159579 6.21170074 2.12177385 12.22609106 2.0625 18.5 C2.05798828 19.4178125 2.05347656 20.335625 2.04882812 21.28125 C2.03716326 23.52090391 2.02079614 25.76041545 2 28 C2.66 28 3.32 28 4 28 C4.33 26.68 4.66 25.36 5 24 C5 30.6 5 37.2 5 44 C2.525 44.495 2.525 44.495 0 45 C-0.33 46.32 -0.66 47.64 -1 49 C-0.67 32.83 -0.34 16.66 0 0 Z " fill="#0D141A" transform="translate(485,275)"/>
<path d="M0 0 C0.33 0 0.66 0 1 0 C1.33 31.68 1.66 63.36 2 96 C3.65 94.35 5.3 92.7 7 91 C6.8125 93.3125 6.8125 93.3125 6 96 C1.86206897 99 1.86206897 99 0 99 C0 66.33 0 33.66 0 0 Z " fill="#2F3439" transform="translate(493,530)"/>
<path d="M0 0 C2.32852173 -0.36076355 2.32852173 -0.36076355 5.27587891 -0.34057617 C6.92736435 -0.34023628 6.92736435 -0.34023628 8.61221313 -0.33988953 C9.80494843 -0.32440567 10.99768372 -0.30892181 12.2265625 -0.29296875 C13.44451508 -0.28872391 14.66246765 -0.28447906 15.91732788 -0.28010559 C19.82010704 -0.26326831 23.72237604 -0.22560595 27.625 -0.1875 C30.26561756 -0.17245974 32.90624319 -0.15877019 35.546875 -0.14648438 C42.03142504 -0.11334822 48.51567608 -0.06309861 55 0 C55 0.66 55 1.32 55 2 C26.785 2.495 26.785 2.495 -2 3 C-1.34 2.01 -0.68 1.02 0 0 Z " fill="#15181A" transform="translate(371,456)"/>
<path d="M0 0 C0.66 0.66 1.32 1.32 2 2 C1.6757435 2.57177853 1.35148701 3.14355705 1.01740456 3.7326622 C-0.06206394 6.13831265 -0.25875501 7.66149751 -0.2784729 10.27740479 C-0.28963638 11.12431885 -0.30079987 11.97123291 -0.31230164 12.84381104 C-0.31446182 13.76450378 -0.31662201 14.68519653 -0.31884766 15.63378906 C-0.32889328 16.60973022 -0.3389389 17.58567139 -0.34928894 18.59118652 C-0.38017189 21.81599338 -0.39717043 25.04071701 -0.4140625 28.265625 C-0.43277002 30.50194009 -0.45234311 32.73824809 -0.4727478 34.97454834 C-0.52411888 40.85994288 -0.56371807 46.74536031 -0.60089111 52.63085938 C-0.6408995 58.63677661 -0.69200629 64.64259818 -0.7421875 70.6484375 C-0.83900575 82.43222452 -0.92339174 94.21606548 -1 106 C-1.33 106 -1.66 106 -2 106 C-2.04632461 92.91760414 -2.0818699 79.83522776 -2.10362434 66.75276661 C-2.11406496 60.67816586 -2.12822936 54.6036212 -2.15087891 48.52905273 C-2.17259719 42.66761918 -2.18456653 36.80623959 -2.18975449 30.94476891 C-2.19345205 28.70765012 -2.20067237 26.47053432 -2.21146011 24.23343849 C-2.22596138 21.10193097 -2.22797849 17.97064698 -2.22705078 14.83911133 C-2.23424133 13.91266312 -2.24143188 12.9862149 -2.24884033 12.0316925 C-2.23453846 7.57516599 -2.11642631 4.04701095 0 0 Z " fill="#0B1016" transform="translate(589,458)"/>
<path d="M0 0 C0.598125 0.20625 1.19625 0.4125 1.8125 0.625 C3.15766765 6.98397436 3.15766765 6.98397436 1.5 10.0625 C-0.1875 11.625 -0.1875 11.625 -2.1875 11.625 C-2.1875 26.805 -2.1875 41.985 -2.1875 57.625 C-2.5175 57.625 -2.8475 57.625 -3.1875 57.625 C-3.19780746 57.01191986 -3.20811493 56.39883972 -3.21873474 55.7671814 C-3.32707236 49.3754468 -3.44164746 42.98384543 -3.55981445 36.59228516 C-3.60307604 34.20819898 -3.6447572 31.82408357 -3.68481445 29.43994141 C-3.7427298 26.00935057 -3.8063629 22.57890568 -3.87109375 19.1484375 C-3.88780624 18.08571625 -3.90451874 17.022995 -3.92173767 15.92807007 C-4.018676 11.06500153 -4.18063604 6.40491647 -5.1875 1.625 C-2.1875 -0.375 -2.1875 -0.375 0 0 Z " fill="#272B30" transform="translate(487.1875,436.375)"/>
<path d="M0 0 C6.27 0.33 12.54 0.66 19 1 C19 1.33 19 1.66 19 2 C12.565 2.495 12.565 2.495 6 3 C5.67 4.65 5.34 6.3 5 8 C11.33245134 8.88863409 17.61343405 9.29382378 24 9.5625 C24.96550781 9.60568359 25.93101562 9.64886719 26.92578125 9.69335938 C29.28374425 9.79841713 31.64179416 9.90056914 34 10 C34 10.33 34 10.66 34 11 C22.78 11 11.56 11 0 11 C0 7.37 0 3.74 0 0 Z " fill="#081118" transform="translate(755,695)"/>
<path d="M0 0 C0.66 1.32 1.32 2.64 2 4 C2.99 3.34 3.98 2.68 5 2 C5.12367426 8.48602769 4.99470684 14.95876679 4.6875 21.4375 C4.66502197 22.12328125 4.64254395 22.8090625 4.61938477 23.515625 C4.37424078 28.02494026 3.86233629 29.18355162 1 33 C0.67 22.11 0.34 11.22 0 0 Z " fill="#060B10" transform="translate(511,427)"/>
<path d="M0 0 C0.33 0 0.66 0 1 0 C1.33 2.64 1.66 5.28 2 8 C2.33 5.36 2.66 2.72 3 0 C3.33 0 3.66 0 4 0 C4 7.92 4 15.84 4 24 C3.34 23.01 2.68 22.02 2 21 C1.67 22.98 1.34 24.96 1 27 C0.34 27 -0.32 27 -1 27 C-1.11157151 17.92551747 -0.94242818 9.03721311 0 0 Z " fill="#060C12" transform="translate(512,316)"/>
<path d="M0 0 C6.6 0 13.2 0 20 0 C20 0.33 20 0.66 20 1 C14.06 1 8.12 1 2 1 C2 5.95 2 10.9 2 16 C7.94 16 13.88 16 20 16 C18 18 18 18 16.12060547 18.22705078 C15.37697754 18.21657715 14.63334961 18.20610352 13.8671875 18.1953125 C12.77833252 18.18781982 12.77833252 18.18781982 11.66748047 18.18017578 C10.28520264 18.15286377 10.28520264 18.15286377 8.875 18.125 C5.94625 18.08375 3.0175 18.0425 0 18 C0 12.06 0 6.12 0 0 Z " fill="#1C2028" transform="translate(816,672)"/>
<path d="M0 0 C0.33 0 0.66 0 1 0 C1.0292067 3.54164915 1.04686814 7.08326697 1.0625 10.625 C1.07087891 11.62402344 1.07925781 12.62304688 1.08789062 13.65234375 C1.1041087 18.55020275 1.04318537 23.18656199 0 28 C-0.66 27.34 -1.32 26.68 -2 26 C-2.99 28.475 -2.99 28.475 -4 31 C-4.66 30.34 -5.32 29.68 -6 29 C-7.98 29.99 -7.98 29.99 -10 31 C-8.515 25.555 -8.515 25.555 -7 20 C-5.02 19.67 -3.04 19.34 -1 19 C-0.67 12.73 -0.34 6.46 0 0 Z " fill="#343A40" transform="translate(490,300)"/>
<path d="M0 0 C1.875 0.125 1.875 0.125 4 1 C5.125 4 5.125 4 6 7 C6.66 7.33 7.32 7.66 8 8 C11.36516549 14.49878289 11.82930386 21.82706014 11 29 C10.34 29.99 9.68 30.98 9 32 C8.96132813 30.65808594 8.96132813 30.65808594 8.921875 29.2890625 C8.43184713 18.84255932 6.85147288 11.07495018 0 3 C0 2.01 0 1.02 0 0 Z " fill="#0E161E" transform="translate(639,664)"/>
<path d="M0 0 C3.08039935 4.62059903 2.0716324 9.15352116 1.8125 14.5625 C1.78091797 15.62919922 1.74933594 16.69589844 1.71679688 17.79492188 C1.67232422 18.81263672 1.62785156 19.83035156 1.58203125 20.87890625 C1.54311768 21.8129126 1.5042041 22.74691895 1.46411133 23.70922852 C1 26 1 26 -2 28 C-2.05859857 24.64590806 -2.09379582 21.29194983 -2.125 17.9375 C-2.14175781 16.99455078 -2.15851563 16.05160156 -2.17578125 15.08007812 C-2.21372771 9.63476062 -1.81252643 5.14500612 0 0 Z " fill="#151A21" transform="translate(488,441)"/>
<path d="M0 0 C16.8929385 0.96355353 16.8929385 0.96355353 24 2 C23.67 2.99 23.34 3.98 23 5 C15.92278069 5.12109311 9.02804699 4.85373239 2 4 C2.66 3.34 3.32 2.68 4 2 C2.68 1.34 1.36 0.68 0 0 Z " fill="#2E3233" transform="translate(588,380)"/>
<path d="M0 0 C11.55 0 23.1 0 35 0 C33 2 33 2 30.20263672 2.22705078 C29.04006348 2.21657715 27.87749023 2.20610352 26.6796875 2.1953125 C24.79443359 2.18564453 24.79443359 2.18564453 22.87109375 2.17578125 C21.55238281 2.15902344 20.23367188 2.14226563 18.875 2.125 C17.53516279 2.11496983 16.19531848 2.10584404 14.85546875 2.09765625 C11.57013427 2.07402075 8.28515535 2.04107234 5 2 C4.67 2.66 4.34 3.32 4 4 C3.34 4 2.68 4 2 4 C2 5.65 2 7.3 2 9 C3.65 9 5.3 9 7 9 C6.67 9.66 6.34 10.32 6 11 C4.02 11 2.04 11 0 11 C0 7.37 0 3.74 0 0 Z " fill="#02070C" transform="translate(755,672)"/>
<path d="M0 0 C0.99 0.33 1.98 0.66 3 1 C2.21625 1.680625 1.4325 2.36125 0.625 3.0625 C-4.416919 8.70464745 -4.44566086 15.74982758 -5 23 C-4.34 23 -3.68 23 -3 23 C-3.33 23.99 -3.66 24.98 -4 26 C-7.95353775 21.71177122 -7.42655426 17.71529071 -7.2890625 12.140625 C-6.84116672 7.27429783 -5.47425076 4.42818042 -2 1.0625 C-1.34 0.711875 -0.68 0.36125 0 0 Z " fill="#111417" transform="translate(421,673)"/>
<path d="M0 0 C0.66 0.66 1.32 1.32 2 2 C1.071875 2.721875 0.14375 3.44375 -0.8125 4.1875 C-3.58834996 6.48430257 -5.3382678 8.76885405 -7 12 C-6.34 12.94875 -5.68 13.8975 -5 14.875 C-3 18 -3 18 -3 20 C-3.66 20 -4.32 20 -5 20 C-6.76171875 17.91796875 -6.76171875 17.91796875 -8.6875 15.1875 C-9.33074219 14.29417969 -9.97398437 13.40085937 -10.63671875 12.48046875 C-11.31154297 11.25263672 -11.31154297 11.25263672 -12 10 C-10.68374806 6.05124418 -8.94634602 5.45007287 -5.4375 3.3125 C-4.42558594 2.68988281 -3.41367187 2.06726563 -2.37109375 1.42578125 C-1.58863281 0.95527344 -0.80617188 0.48476563 0 0 Z " fill="#172029" transform="translate(854,691)"/>
<path d="M0 0 C1.28132812 0.00902344 2.56265625 0.01804687 3.8828125 0.02734375 C4.87023437 0.03894531 5.85765625 0.05054688 6.875 0.0625 C6.545 0.7225 6.215 1.3825 5.875 2.0625 C5.71823225 4.75905446 5.61663685 7.43379977 5.55859375 10.1328125 C5.53781265 10.92904022 5.51703156 11.72526794 5.49562073 12.54562378 C5.43015851 15.09282685 5.37125585 17.64013425 5.3125 20.1875 C5.2693116 21.91277127 5.22569721 23.63803193 5.18164062 25.36328125 C5.07448055 29.59624685 4.97320377 33.82931753 4.875 38.0625 C4.545 38.0625 4.215 38.0625 3.875 38.0625 C3.875 26.5125 3.875 14.9625 3.875 3.0625 C-0.415 3.0625 -4.705 3.0625 -9.125 3.0625 C-9.125 2.4025 -9.125 1.7425 -9.125 1.0625 C-6.12186252 -0.43906874 -3.33432478 -0.03031204 0 0 Z " fill="#2C383D" transform="translate(185.125,655.9375)"/>
<path d="M0 0 C3.63 0 7.26 0 11 0 C9.68 0.33 8.36 0.66 7 1 C7 1.66 7 2.32 7 3 C13.6 3 20.2 3 27 3 C27 3.33 27 3.66 27 4 C15.45 4 3.9 4 -8 4 C-8 3.67 -8 3.34 -8 3 C-5.69 3 -3.38 3 -1 3 C-0.67 2.01 -0.34 1.02 0 0 Z " fill="#06050E" transform="translate(441,381)"/>
<path d="M0 0 C3 1 3 1 4.625 4.1875 C8.01919388 12.9306591 7.52232374 21.17186692 5 30 C4.67 30 4.34 30 4 30 C4.04640625 28.97261719 4.0928125 27.94523438 4.140625 26.88671875 C4.38622405 18.95367765 4.14089708 12.54168679 0.875 5.13671875 C0 3 0 3 0 0 Z " fill="#0A0E18" transform="translate(286,670)"/>
<path d="M0 0 C6.0546875 -0.1953125 6.0546875 -0.1953125 8 0 C8.66 0.66 9.32 1.32 10 2 C9.625 3.9375 9.625 3.9375 9 6 C9 6.99 9 7.98 9 9 C9 9.99 9 10.98 9 12 C8.34 12 7.68 12 7 12 C5.52734375 10.13671875 5.52734375 10.13671875 3.9375 7.6875 C3.41027344 6.88699219 2.88304687 6.08648437 2.33984375 5.26171875 C1 3 1 3 0 0 Z " fill="#17191E" transform="translate(472,422)"/>
<path d="M0 0 C0.72391937 0.00666183 1.44783875 0.01332367 2.19369507 0.02018738 C3.01439484 0.02041397 3.8350946 0.02064056 4.68066406 0.02087402 C6.01041763 0.04409981 6.01041763 0.04409981 7.36703491 0.0677948 C8.27424286 0.07203964 9.18145081 0.07628448 10.1161499 0.08065796 C13.02038973 0.09748222 15.92394151 0.13514095 18.82797241 0.17326355 C20.79410824 0.18830556 22.76025492 0.2019948 24.72640991 0.21427917 C29.5521968 0.24739798 34.37746786 0.29920569 39.20297241 0.36076355 C39.20297241 0.69076355 39.20297241 1.02076355 39.20297241 1.36076355 C37.99520142 1.39834778 37.99520142 1.39834778 36.76303101 1.43669128 C33.70257138 1.53327513 30.6422058 1.63238965 27.58187866 1.733078 C25.63532426 1.79639794 23.68868021 1.8569432 21.74203491 1.91740417 C13.20677722 2.20046119 4.71608883 2.68910916 -3.79702759 3.36076355 C-1.79702759 0.36076355 -1.79702759 0.36076355 0 0 Z " fill="#0D1114" transform="translate(372.7970275878906,455.6392364501953)"/>
<path d="M0 0 C0.33 0 0.66 0 1 0 C0.52060632 4.71403788 0.03165952 8.66579301 -2 13 C-2.33 12.34 -2.66 11.68 -3 11 C-5.02463255 10.34786708 -5.02463255 10.34786708 -7 10 C-7.66 10.99 -8.32 11.98 -9 13 C-9.33 12.01 -9.66 11.02 -10 10 C-5.25 5.125 -5.25 5.125 -3 4 C-2.67 4.66 -2.34 5.32 -2 6 C-1.34 4.02 -0.68 2.04 0 0 Z " fill="#171E21" transform="translate(488,324)"/>
<path d="M0 0 C0.33 4.95 0.66 9.9 1 15 C0.01 15.495 0.01 15.495 -1 16 C-1.66 15.34 -2.32 14.68 -3 14 C-2.96644181 9.96183055 -2.42777699 6.02110368 -2 2 C-7.28 2 -12.56 2 -18 2 C-18 1.67 -18 1.34 -18 1 C-15.1875205 0.83298107 -12.37501801 0.66636797 -9.5625 0.5 C-8.76005859 0.45230469 -7.95761719 0.40460937 -7.13085938 0.35546875 C-1.11328125 0 -1.11328125 0 0 0 Z " fill="#040E17" transform="translate(787,681)"/>
<path d="M0 0 C2.90182859 1.31901299 4.23086073 3.38628816 6.0625 5.9375 C5.7325 6.5975 5.4025 7.2575 5.0625 7.9375 C4.52625 7.7725 3.99 7.6075 3.4375 7.4375 C0.60363991 6.84089788 -2.0494806 6.8718632 -4.9375 6.9375 C-5.125 4.5625 -5.125 4.5625 -4.9375 1.9375 C-1.9375 -0.0625 -1.9375 -0.0625 0 0 Z " fill="#191B20" transform="translate(475.9375,416.0625)"/>
<path d="M0 0 C0.33 0 0.66 0 1 0 C1 7.92 1 15.84 1 24 C0.67 24 0.34 24 0 24 C-2.11660466 17.12103485 -3.92929634 8.4819038 -0.984375 1.640625 C-0.65953125 1.09921875 -0.3346875 0.5578125 0 0 Z " fill="#12181D" transform="translate(516,273)"/>
<path d="M0 0 C2.4375 0.375 2.4375 0.375 5 1 C6 3 6 3 6 6 C3.625 8.6875 3.625 8.6875 1 11 C0.34 11 -0.32 11 -1 11 C-2.60080151 6.99799622 -1.29279692 3.95443764 0 0 Z M2 1 C2 1.99 2 2.98 2 4 C2.66 3.34 3.32 2.68 4 2 C3.34 1.67 2.68 1.34 2 1 Z " fill="#12191A" transform="translate(670,298)"/>
<path d="M0 0 C4.29 0.33 8.58 0.66 13 1 C13 1.33 13 1.66 13 2 C9.37 2.33 5.74 2.66 2 3 C2.185625 3.94875 2.37125 4.8975 2.5625 5.875 C3.26768593 10.64479926 2.62132638 15.24924288 2 20 C1.67 20 1.34 20 1 20 C0.67 13.4 0.34 6.8 0 0 Z " fill="#0A0E13" transform="translate(817,701)"/>
<path d="M0 0 C0.33 0 0.66 0 1 0 C1.54466387 4.084979 2 7.8725485 2 12 C5.3 12.33 8.6 12.66 12 13 C12 13.33 12 13.66 12 14 C7.71 14 3.42 14 -1 14 C-1.125 2.25 -1.125 2.25 0 0 Z " fill="#0B1417" transform="translate(190,692)"/>
<path d="M0 0 C4.62 0 9.24 0 14 0 C14 0.99 14 1.98 14 3 C9.71 3 5.42 3 1 3 C0.67 2.01 0.34 1.02 0 0 Z " fill="#212126" transform="translate(413,382)"/>
<path d="M0 0 C0.33 0.66 0.66 1.32 1 2 C0.195625 2.61875 -0.60875 3.2375 -1.4375 3.875 C-4.03874519 5.74164041 -4.03874519 5.74164041 -5 8 C0.28 8 5.56 8 11 8 C11 8.33 11 8.66 11 9 C4.07 9 -2.86 9 -10 9 C-6.68908998 5.68908998 -3.65992062 2.82336734 0 0 Z " fill="#E0E4E6" transform="translate(301,356)"/>
<path d="M0 0 C0 3.98189489 -1.47178333 4.98018565 -4 8 C-4.639375 9.093125 -5.27875 10.18625 -5.9375 11.3125 C-8 14 -8 14 -10.75 14.375 C-11.4925 14.25125 -12.235 14.1275 -13 14 C-8.88380164 9.08064098 -4.59589638 4.47352044 0 0 Z " fill="#333837" transform="translate(704,440)"/>
<path d="M0 0 C8.91 0 17.82 0 27 0 C26.34 1.32 25.68 2.64 25 4 C24.01 4 23.02 4 22 4 C22 3.34 22 2.68 22 2 C14.74 1.67 7.48 1.34 0 1 C0 0.67 0 0.34 0 0 Z " fill="#D8DCE0" transform="translate(714,406)"/>
<path d="M0 0 C0.66 0.33 1.32 0.66 2 1 C1.36191406 1.61488281 0.72382812 2.22976563 0.06640625 2.86328125 C-1.17302734 4.07564453 -1.17302734 4.07564453 -2.4375 5.3125 C-3.26121094 6.11300781 -4.08492187 6.91351563 -4.93359375 7.73828125 C-7.19403477 9.90470808 -7.19403477 9.90470808 -8 13 C-10.0625 13.6875 -10.0625 13.6875 -12 14 C-10.60089587 9.47301364 -8.4384826 7.24844018 -4.875 4.1875 C-3.96492187 3.39730469 -3.05484375 2.60710937 -2.1171875 1.79296875 C-1.06917969 0.90544922 -1.06917969 0.90544922 0 0 Z " fill="#CCCED0" transform="translate(536,393)"/>
<path d="M0 0 C2.28062828 3.42094242 2.21925007 4.68187222 2.125 8.6875 C2.10695313 9.68136719 2.08890625 10.67523437 2.0703125 11.69921875 C2.03550781 12.83810547 2.03550781 12.83810547 2 14 C1.01 14 0.02 14 -1 14 C-1.02694851 12.04174127 -1.04637218 10.08337774 -1.0625 8.125 C-1.07410156 7.03445313 -1.08570313 5.94390625 -1.09765625 4.8203125 C-1 2 -1 2 0 0 Z " fill="#0A111B" transform="translate(510,704)"/>
<path d="M0 0 C2.93576279 1.012332 3.97512741 1.96357942 5.75 4.5625 C7.30903894 8.84985708 7.27038392 12.49360134 7 17 C6.34 17.33 5.68 17.66 5 18 C4.97421875 17.26394531 4.9484375 16.52789063 4.921875 15.76953125 C4.58144483 9.91258492 4.32166709 6.32166709 0 2 C0 1.34 0 0.68 0 0 Z " fill="#1F252A" transform="translate(629,675)"/>
<path d="M0 0 C0.33 0.66 0.66 1.32 1 2 C0.55269531 2.50789063 0.10539062 3.01578125 -0.35546875 3.5390625 C-3.96286942 7.64642275 -7.52114925 11.78321121 -11 16 C-11.99 15.34 -12.98 14.68 -14 14 C-13.24074219 13.32453125 -12.48148437 12.6490625 -11.69921875 11.953125 C-10.69514311 11.05227209 -9.69124628 10.15121986 -8.6875 9.25 C-8.18798828 8.8065625 -7.68847656 8.363125 -7.17382812 7.90625 C-4.45068191 5.453615 -2.07235877 3.02719984 0 0 Z " fill="#D5D8D9" transform="translate(326,332)"/>
<path d="M0 0 C0.66 0 1.32 0 2 0 C3.17673198 2.35346396 3.16623866 3.8806033 3.1875 6.5 C3.20167969 7.2940625 3.21585937 8.088125 3.23046875 8.90625 C3 11 3 11 1 13 C0 12 0 12 -0.09765625 9.27734375 C-0.08605469 8.17519531 -0.07445312 7.07304688 -0.0625 5.9375 C-0.05347656 4.83277344 -0.04445313 3.72804688 -0.03515625 2.58984375 C-0.02355469 1.73519531 -0.01195312 0.88054688 0 0 Z " fill="#293238" transform="translate(276,682)"/>
<path d="M0 0 C-3.37169992 2.83222793 -6.85888893 4.52103176 -11 6 C-13.21875 5.578125 -13.21875 5.578125 -15 5 C-5.77448747 -0.74031891 -5.77448747 -0.74031891 0 0 Z " fill="#2A2F35" transform="translate(577,402)"/>
<path d="M0 0 C0.99 0 1.98 0 3 0 C3.75 1.6875 3.75 1.6875 4 4 C2.0625 6.75 2.0625 6.75 0 9 C-0.99 7.35 -1.98 5.7 -3 4 C-1.6875 2 -1.6875 2 0 0 Z " fill="#0E151B" transform="translate(469,346)"/>
<path d="M0 0 C2.06346883 1.69736952 2.92141899 2.66883717 3.546875 5.3046875 C4.22694467 13.91018444 4.22694467 13.91018444 3 18 C2.67 18 2.34 18 2 18 C1.92652344 16.91332031 1.92652344 16.91332031 1.8515625 15.8046875 C1.44793848 10.58541133 0.98724193 5.90186342 -1 1 C-0.67 0.67 -0.34 0.34 0 0 Z " fill="#0C131A" transform="translate(654,228)"/>
<path d="M0 0 C1.32 0.99 2.64 1.98 4 3 C3.67 3.33 3.34 3.66 3 4 C3.39636388 7.19733532 3.88215272 10.36438389 4.41601562 13.54101562 C4.69099617 15.3502825 4.85299294 17.17587012 5 19 C4.34 19.66 3.68 20.32 3 21 C2.92652344 19.91332031 2.92652344 19.91332031 2.8515625 18.8046875 C2.44429706 13.53832408 1.82508863 8.9885756 0 4 C0 2.68 0 1.36 0 0 Z " fill="#060C17" transform="translate(575,674)"/>
<path d="M0 0 C0 0.66 0 1.32 0 2 C-0.99 2.495 -0.99 2.495 -2 3 C-3.01866229 4.65532623 -4.01810813 6.32260138 -5 8 C-5.66 8.66 -6.32 9.32 -7 10 C-7.99 10 -8.98 10 -10 10 C-8.50006099 6.10015857 -4.53875449 0 0 0 Z " fill="#080C11" transform="translate(455,707)"/>
<path d="M0 0 C0.66 0 1.32 0 2 0 C2 3.3 2 6.6 2 10 C1.01 10.495 1.01 10.495 0 11 C0 9.68 0 8.36 0 7 C-0.99 7 -1.98 7 -3 7 C-1.125 2.25 -1.125 2.25 0 0 Z " fill="#192224" transform="translate(712,684)"/>
<path d="M0 0 C0.66 0.33 1.32 0.66 2 1 C0.625 3 0.625 3 -1 5 C-1.66 5 -2.32 5 -3 5 C-3.33 5.99 -3.66 6.98 -4 8 C-6.97 7.505 -6.97 7.505 -10 7 C-6.76478258 4.51137122 -3.40739705 2.24578442 0 0 Z " fill="#313739" transform="translate(467,347)"/>
<path d="M0 0 C0.33 0 0.66 0 1 0 C1.33 6.6 1.66 13.2 2 20 C2.66 20.33 3.32 20.66 4 21 C2.02 21.99 2.02 21.99 0 23 C0 15.41 0 7.82 0 0 Z " fill="#E2E5E6" transform="translate(595,224)"/>
<path d="M0 0 C0.66 0 1.32 0 2 0 C2 0.99 2 1.98 2 3 C2.66 3.33 3.32 3.66 4 4 C2.38405168 6.04119788 0.7143618 8.04072937 -1 10 C-1.66 10 -2.32 10 -3 10 C-2.21302675 6.58978257 -1.12880057 3.31114834 0 0 Z " fill="#0D141C" transform="translate(452,665)"/>
<path d="M0 0 C0.66 0.33 1.32 0.66 2 1 C1.01 2.485 1.01 2.485 0 4 C-0.66 4 -1.32 4 -2 4 C-2 4.99 -2 5.98 -2 7 C-3.98 7 -5.96 7 -8 7 C-3.76744186 1.25581395 -3.76744186 1.25581395 0 0 Z " fill="#2C3133" transform="translate(609,535)"/>
<path d="M0 0 C0.99 0 1.98 0 3 0 C3 1.98 3 3.96 3 6 C1.68 6.33 0.36 6.66 -1 7 C-1 6.34 -1 5.68 -1 5 C-1.66 5 -2.32 5 -3 5 C-1.125 1.125 -1.125 1.125 0 0 Z " fill="#121519" transform="translate(421,510)"/>
<path d="M0 0 C0.66 0.66 1.32 1.32 2 2 C0.57282151 3.67551353 -0.86708482 5.34019309 -2.3125 7 C-3.51326172 8.3921875 -3.51326172 8.3921875 -4.73828125 9.8125 C-7 12 -7 12 -10 12 C-9.44570313 11.38511719 -8.89140625 10.77023437 -8.3203125 10.13671875 C-7.59585937 9.32847656 -6.87140625 8.52023437 -6.125 7.6875 C-5.40570313 6.88699219 -4.68640625 6.08648437 -3.9453125 5.26171875 C-1.88394498 2.95810917 -1.88394498 2.95810917 0 0 Z " fill="#D4D7D7" transform="translate(483,341)"/>
<path d="M0 0 C1.67110042 2.96178773 2.32682752 5.37071192 2.625 8.75 C2.69976563 9.54921875 2.77453125 10.3484375 2.8515625 11.171875 C2.90054688 11.77515625 2.94953125 12.3784375 3 13 C-0.54039643 9.30567329 -0.67693402 5.9267562 -1 1 C-0.67 0.67 -0.34 0.34 0 0 Z " fill="#1A1E20" transform="translate(657,261)"/>
<path d="M0 0 C1.65 0 3.3 0 5 0 C5 0.99 5 1.98 5 3 C6.65 3.33 8.3 3.66 10 4 C10 4.66 10 5.32 10 6 C6.05879291 5.43697042 3.2491277 4.3208055 0 2 C0 1.34 0 0.68 0 0 Z " fill="#141D26" transform="translate(439,657)"/>
<path d="M0 0 C1.32 0.33 2.64 0.66 4 1 C4 1.66 4 2.32 4 3 C4.66 3 5.32 3 6 3 C6 3.66 6 4.32 6 5 C6.66 5 7.32 5 8 5 C8 5.66 8 6.32 8 7 C8.66 7.33 9.32 7.66 10 8 C5.60249328 7.49259538 3.13051078 4.91706686 0 2 C0 1.34 0 0.68 0 0 Z " fill="#171B1F" transform="translate(669,469)"/>
<path d="M0 0 C3.53600465 1.91135386 5.78972846 3.62642766 8 7 C7.67 7.66 7.34 8.32 7 9 C6.566875 8.505 6.13375 8.01 5.6875 7.5 C4.00259517 5.66781808 4.00259517 5.66781808 1 6 C0.67 4.02 0.34 2.04 0 0 Z " fill="#292F30" transform="translate(284,406)"/>
<path d="M0 0 C0 3.93169105 -1.39419615 5.16427228 -4 8 C-4.66 8 -5.32 8 -6 8 C-5.65120368 4.74456771 -4.97866739 3.98126893 -2.4375 1.75 C-1.633125 1.1725 -0.82875 0.595 0 0 Z " fill="#1A1F23" transform="translate(287,706)"/>
<path d="M0 0 C-2.64 1.98 -5.28 3.96 -8 6 C-8.66 5.67 -9.32 5.34 -10 5 C-5.16129032 -1.29032258 -5.16129032 -1.29032258 0 0 Z " fill="#122024" transform="translate(604,662)"/>
<path d="M0 0 C1.21236328 0.04060547 1.21236328 0.04060547 2.44921875 0.08203125 C3.06410156 0.11683594 3.67898438 0.15164063 4.3125 0.1875 C3.9825 0.8475 3.6525 1.5075 3.3125 2.1875 C0.80859375 2.6015625 0.80859375 2.6015625 -2.25 2.8125 C-3.26191406 2.88726563 -4.27382813 2.96203125 -5.31640625 3.0390625 C-6.09886719 3.08804688 -6.88132812 3.13703125 -7.6875 3.1875 C-5.26849268 0.20484049 -3.789448 -0.16475861 0 0 Z " fill="#212F39" transform="translate(815.6875,655.8125)"/>
<path d="M0 0 C0 3.51716303 -0.82445585 4.37121748 -3 7 C-1.68 7.33 -0.36 7.66 1 8 C0.01 8.495 0.01 8.495 -1 9 C-3.625 8.0625 -3.625 8.0625 -6 7 C-4.60667426 3.63279613 -3.0210714 2.0140476 0 0 Z " fill="#CACDD0" transform="translate(415,526)"/>
<path d="M0 0 C1.98 0 3.96 0 6 0 C2.375 4.875 2.375 4.875 -1 6 C-0.67 4.02 -0.34 2.04 0 0 Z " fill="#D9DBDB" transform="translate(721,422)"/>
<path d="M0 0 C5.28 0.33 10.56 0.66 16 1 C16 1.33 16 1.66 16 2 C10.06 2.33 4.12 2.66 -2 3 C-1.34 2.67 -0.68 2.34 0 2 C0 1.34 0 0.68 0 0 Z " fill="#32363C" transform="translate(590,404)"/>
<path d="M0 0 C0.66 0.33 1.32 0.66 2 1 C2 1.66 2 2.32 2 3 C0.25 4.6875 0.25 4.6875 -2 6 C-4.25 5.6875 -4.25 5.6875 -6 5 C-4.02 3.35 -2.04 1.7 0 0 Z " fill="#2B3135" transform="translate(729,421)"/>
<path d="M0 0 C0.66 0.33 1.32 0.66 2 1 C0.60667426 4.36720387 -0.9789286 5.9859524 -4 8 C-4.66 7.34 -5.32 6.68 -6 6 C-5.195625 5.38125 -4.39125 4.7625 -3.5625 4.125 C-0.96125481 2.25835959 -0.96125481 2.25835959 0 0 Z " fill="#2A2E34" transform="translate(322,333)"/>
<path d="M0 0 C0.66 0.33 1.32 0.66 2 1 C0.38405168 3.04119788 -1.2856382 5.04072937 -3 7 C-3.66 7 -4.32 7 -5 7 C-5 7.66 -5 8.32 -5 9 C-5.66 9 -6.32 9 -7 9 C-5.44499019 5.18315774 -2.96404505 2.80804268 0 0 Z " fill="#CDD1D3" transform="translate(340,309)"/>
<path d="M0 0 C0 0.99 0 1.98 0 3 C-5.2734375 6.22265625 -5.2734375 6.22265625 -7 7 C-7.66 6.67 -8.32 6.34 -9 6 C-8.01 5.67 -7.02 5.34 -6 5 C-5.67 4.01 -5.34 3.02 -5 2 C-2 0 -2 0 0 0 Z " fill="#151C21" transform="translate(632,230)"/>
<path d="M0 0 C0.66 0 1.32 0 2 0 C3.6875 2.3125 3.6875 2.3125 5 5 C4.67 5.99 4.34 6.98 4 8 C2 6.25 2 6.25 0 4 C0 2.68 0 1.36 0 0 Z " fill="#161D25" transform="translate(675,684)"/>
<path d="M0 0 C0.33 0.99 0.66 1.98 1 3 C-0.21484375 4.82421875 -0.21484375 4.82421875 -1.9375 6.6875 C-2.50339844 7.31011719 -3.06929687 7.93273437 -3.65234375 8.57421875 C-4.09707031 9.04472656 -4.54179688 9.51523437 -5 10 C-5.33 9.01 -5.66 8.02 -6 7 C-4.78515625 5.17578125 -4.78515625 5.17578125 -3.0625 3.3125 C-2.49660156 2.68988281 -1.93070313 2.06726563 -1.34765625 1.42578125 C-0.90292969 0.95527344 -0.45820312 0.48476563 0 0 Z " fill="#131A1C" transform="translate(742,405)"/>
<path d="M0 0 C0.33 0.66 0.66 1.32 1 2 C0.22265625 3.7265625 0.22265625 3.7265625 -0.9375 5.625 C-1.618125 6.73875 -2.29875 7.8525 -3 9 C-3.66 8.01 -4.32 7.02 -5 6 C-4.67 5.01 -4.34 4.02 -4 3 C-3.34 3 -2.68 3 -2 3 C-1.34 2.01 -0.68 1.02 0 0 Z " fill="#141B27" transform="translate(306,669)"/>
<path d="M0 0 C0.66 0.33 1.32 0.66 2 1 C-1.96 4.465 -1.96 4.465 -6 8 C-6.66 7.67 -7.32 7.34 -8 7 C-5.36 4.69 -2.72 2.38 0 0 Z " fill="#D1D2D3" transform="translate(369,460)"/>
<path d="M0 0 C1.58294782 -0.05437607 3.16644256 -0.09296271 4.75 -0.125 C5.63171875 -0.14820313 6.5134375 -0.17140625 7.421875 -0.1953125 C10.1135858 0.00860498 11.69904974 0.63448279 14 2 C8.51053913 3.12029814 5.16569441 2.79217969 0 1 C0 0.67 0 0.34 0 0 Z " fill="#C9CBCC" transform="translate(608,372)"/>
<path d="M0 0 C0.66 0.33 1.32 0.66 2 1 C1.67 1.99 1.34 2.98 1 4 C0.34 4 -0.32 4 -1 4 C-1 4.66 -1 5.32 -1 6 C-2.65 6.33 -4.3 6.66 -6 7 C-4.02 4.69 -2.04 2.38 0 0 Z " fill="#CDD1D5" transform="translate(453,183)"/>
<path d="M0 0 C0.66 0 1.32 0 2 0 C0.71480435 2.86697492 -0.57129254 4.97607712 -3 7 C-3.66 7 -4.32 7 -5 7 C-4.6875 5.0625 -4.6875 5.0625 -4 3 C-3.01 2.67 -2.02 2.34 -1 2 C-0.67 1.34 -0.34 0.68 0 0 Z " fill="#14181E" transform="translate(601,253)"/>
<path d="M0 0 C1.98 0 3.96 0 6 0 C5 1.5 5 1.5 3 3 C0.28153765 3.27345479 -2.25677199 3.13491285 -5 3 C-5 2.67 -5 2.34 -5 2 C-3.35 2 -1.7 2 0 2 C0 1.34 0 0.68 0 0 Z " fill="#0C1319" transform="translate(263,704)"/>
<path d="M0 0 C2.475 0.495 2.475 0.495 5 1 C5 1.66 5 2.32 5 3 C2.5 4.625 2.5 4.625 0 6 C0 4.02 0 2.04 0 0 Z " fill="#070D16" transform="translate(356,685)"/>
<path d="M0 0 C0.33 0.99 0.66 1.98 1 3 C-0.4375 5.1875 -0.4375 5.1875 -2 7 C-2.99 6.67 -3.98 6.34 -5 6 C-3.35 4.02 -1.7 2.04 0 0 Z " fill="#3D4146" transform="translate(499,621)"/>
<path d="M0 0 C3.91402949 1.26941497 5.79072873 2.51167694 8 6 C4.06830895 6 2.83572772 4.60580385 0 2 C0 1.34 0 0.68 0 0 Z " fill="#191B1C" transform="translate(606,512)"/>
<path d="M0 0 C0.99 0.33 1.98 0.66 3 1 C2.67 2.32 2.34 3.64 2 5 C0.35 5 -1.3 5 -3 5 C-2.01 3.35 -1.02 1.7 0 0 Z " fill="#C5CACF" transform="translate(265,388)"/>
<path d="M0 0 C-3.44450737 2.29633824 -5.93812283 2.54016485 -10 3 C-10 2.34 -10 1.68 -10 1 C-6.52674819 -0.1577506 -3.63932552 -0.06866652 0 0 Z " fill="#24292E" transform="translate(551,387)"/>
<path d="M0 0 C0 0.33 0 0.66 0 1 C-1.98 1 -3.96 1 -6 1 C-6 1.66 -6 2.32 -6 3 C-8.64 2.67 -11.28 2.34 -14 2 C-14 1.67 -14 1.34 -14 1 C-9.23692563 0.04738513 -4.8333472 -0.08333357 0 0 Z " fill="#474B4F" transform="translate(434,361)"/>
<path d="M0 0 C1.32 0.66 2.64 1.32 4 2 C4 2.66 4 3.32 4 4 C1.50935112 4.68707555 -0.37886292 5 -3 5 C-1.125 1.125 -1.125 1.125 0 0 Z " fill="#091015" transform="translate(481,333)"/>
<path d="M0 0 C0.99 0.33 1.98 0.66 3 1 C3 4.63 3 8.26 3 12 C2.67 12 2.34 12 2 12 C1.34 8.04 0.68 4.08 0 0 Z " fill="#15171C" transform="translate(585,197)"/>
<path d="M0 0 C2.31 1.65 4.62 3.3 7 5 C6.01 5.495 6.01 5.495 5 6 C2.5249829 4.88568235 0.32116581 3.41849022 -2 2 C-1.34 1.34 -0.68 0.68 0 0 Z " fill="#10171F" transform="translate(407,708)"/>
<path d="M0 0 C0.66 0.99 1.32 1.98 2 3 C0.35 4.65 -1.3 6.3 -3 8 C-3.66 7.67 -4.32 7.34 -5 7 C-3.35 4.69 -1.7 2.38 0 0 Z " fill="#35383A" transform="translate(505,612)"/>
<path d="M0 0 C2.5 2.3125 2.5 2.3125 5 5 C5 5.99 5 6.98 5 8 C2.21611025 6.29374499 1.14615794 5.52373261 0.25 2.3125 C0.1675 1.549375 0.085 0.78625 0 0 Z " fill="#4E5052" transform="translate(476,416)"/>
<path d="M0 0 C3.3 0.66 6.6 1.32 10 2 C10 2.33 10 2.66 10 3 C6.37 3 2.74 3 -1 3 C-0.67 2.01 -0.34 1.02 0 0 Z " fill="#242830" transform="translate(418,368)"/>
<path d="M0 0 C2.03833424 1.2739589 4.03852126 2.61061923 6 4 C6 4.66 6 5.32 6 6 C4.35 5.67 2.7 5.34 1 5 C0.67 3.35 0.34 1.7 0 0 Z " fill="#161B24" transform="translate(726,352)"/>
<path d="M0 0 C2.375 0.1875 2.375 0.1875 5 1 C6.3125 3.5625 6.3125 3.5625 7 6 C3.63279613 4.60667426 2.0140476 3.0210714 0 0 Z " fill="#585C60" transform="translate(720,350)"/>
<path d="M0 0 C1.61949011 2.57213134 2.04408751 3.67669159 1.625 6.75 C1.41875 7.4925 1.2125 8.235 1 9 C-1 6 -1 6 -0.625 2.8125 C-0.41875 1.884375 -0.2125 0.95625 0 0 Z " fill="#26292F" transform="translate(516,338)"/>
<path d="M0 0 C0 0.99 0 1.98 0 3 C-2.53184488 5.35723489 -3.47190093 6 -7 6 C-7 5.34 -7 4.68 -7 4 C-4.69 2.68 -2.38 1.36 0 0 Z " fill="#1A1E23" transform="translate(434,314)"/>
<path d="M0 0 C5.75 0.75 5.75 0.75 8 3 C5.39417629 3.93065133 4.35801776 4.14917407 1.75 3.0625 C1.1725 2.711875 0.595 2.36125 0 2 C0 1.34 0 0.68 0 0 Z " fill="#2F3436" transform="translate(555,172)"/>
</svg>
